<?xml version="1.0" encoding="UTF-8"?>
<!DOCTYPE svg PUBLIC "-//W3C//DTD SVG 1.1//EN" "http://www.w3.org/Graphics/SVG/1.1/DTD/svg11.dtd">
<svg xmlns="http://www.w3.org/2000/svg" version="1.1" width="512px" height="512px" style="shape-rendering:geometricPrecision; text-rendering:geometricPrecision; image-rendering:optimizeQuality; fill-rule:evenodd; clip-rule:evenodd" xmlns:xlink="http://www.w3.org/1999/xlink">
<g><path style="opacity:0.981" fill="#323232" d="M 128.5,81.5 C 151.836,81.3334 175.169,81.5 198.5,82C 201.317,84.6381 203.65,87.6381 205.5,91C 224.5,91.3333 243.5,91.6667 262.5,92C 266.573,93.0721 269.407,95.5721 271,99.5C 291.882,163.02 330.049,213.186 385.5,250C 414.755,267.752 446.255,279.586 480,285.5C 480.667,307.833 480.667,330.167 480,352.5C 479.167,353.333 478.333,354.167 477.5,355C 338.42,355.997 199.42,355.663 60.5,354C 50.5861,346.088 42.0861,336.922 35,326.5C 32.5452,322.469 30.8786,318.136 30,313.5C 29.3333,273.833 29.3333,234.167 30,194.5C 41.8223,161.194 54.3223,128.194 67.5,95.5C 69.0284,94.1387 70.6951,92.972 72.5,92C 89.8333,91.6667 107.167,91.3333 124.5,91C 125.42,87.6599 126.753,84.4932 128.5,81.5 Z M 75.5,108.5 C 101.509,108.167 127.509,108.5 153.5,109.5C 148.843,133.772 144.51,158.106 140.5,182.5C 111.165,182.667 81.8314,182.5 52.5,182C 49.8059,179.347 48.9726,176.18 50,172.5C 58.0275,150.905 66.5275,129.572 75.5,108.5 Z M 167.5,108.5 C 195.169,108.333 222.835,108.5 250.5,109C 256.324,126.473 262.158,143.973 268,161.5C 268.909,167.612 268.576,173.612 267,179.5C 265.352,180.717 263.519,181.55 261.5,182C 225.829,182.833 190.162,182.667 154.5,181.5C 159.157,157.228 163.49,132.894 167.5,108.5 Z M 295.5,186.5 C 304.683,198.861 314.849,210.528 326,221.5C 326.667,242.833 326.667,264.167 326,285.5C 315.733,279.562 305.733,273.228 296,266.5C 295.5,239.835 295.333,213.169 295.5,186.5 Z M 336.5,231.5 C 345.187,237.937 354.02,244.27 363,250.5C 363.5,267.497 363.667,284.497 363.5,301.5C 354.283,298.81 345.45,295.143 337,290.5C 336.5,270.836 336.333,251.169 336.5,231.5 Z M 65.5,250.5 C 82.152,250.315 88.652,258.315 85,274.5C 75.7392,286.012 66.0726,286.345 56,275.5C 51.4103,264.091 54.577,255.758 65.5,250.5 Z M 230.5,250.5 C 247.052,249.636 253.885,257.302 251,273.5C 244.603,283.854 236.103,286.02 225.5,280C 219.051,273.364 217.885,265.864 222,257.5C 224.441,254.546 227.275,252.213 230.5,250.5 Z M 373.5,256.5 C 381.366,261.601 389.699,265.934 398.5,269.5C 399.833,284.167 399.833,298.833 398.5,313.5C 390.28,310.927 382.114,308.26 374,305.5C 373.5,289.17 373.333,272.837 373.5,256.5 Z M 407.5,273.5 C 414.203,276.457 421.036,279.124 428,281.5C 428.5,294.162 428.667,306.829 428.5,319.5C 421.707,318.808 415.04,317.475 408.5,315.5C 407.501,301.516 407.167,287.516 407.5,273.5 Z M 435.5,283.5 C 441.688,285.631 448.022,287.297 454.5,288.5C 454.832,300.518 454.499,312.518 453.5,324.5C 447.542,323.285 441.542,322.285 435.5,321.5C 435.5,308.833 435.5,296.167 435.5,283.5 Z M 459.5,290.5 C 464.167,291.167 468.833,291.833 473.5,292.5C 473.832,303.853 473.499,315.186 472.5,326.5C 468.555,325.732 464.555,325.232 460.5,325C 459.512,313.581 459.179,302.081 459.5,290.5 Z"/></g>
<g><path style="opacity:0.961" fill="#323232" d="M 63.5,384.5 C 78.1667,384.5 92.8333,384.5 107.5,384.5C 107.5,391.833 107.5,399.167 107.5,406.5C 146.833,406.5 186.167,406.5 225.5,406.5C 225.5,399.167 225.5,391.833 225.5,384.5C 310.5,384.5 395.5,384.5 480.5,384.5C 480.5,388.833 480.5,393.167 480.5,397.5C 439.914,396.828 399.58,399.661 359.5,406C 341.661,408.724 324.661,414.058 308.5,422C 305.833,424 303.167,426 300.5,428C 210.167,428.5 119.834,428.667 29.5,428.5C 29.5,421.167 29.5,413.833 29.5,406.5C 40.8333,406.5 52.1667,406.5 63.5,406.5C 63.5,399.167 63.5,391.833 63.5,384.5 Z"/></g>
</svg>
