<?xml version="1.0" encoding="UTF-8"?>
<!DOCTYPE svg PUBLIC "-//W3C//DTD SVG 1.1//EN" "http://www.w3.org/Graphics/SVG/1.1/DTD/svg11.dtd">
<svg xmlns="http://www.w3.org/2000/svg" version="1.1" width="512px" height="512px" style="shape-rendering:geometricPrecision; text-rendering:geometricPrecision; image-rendering:optimizeQuality; fill-rule:evenodd; clip-rule:evenodd" xmlns:xlink="http://www.w3.org/1999/xlink">
<g><path style="opacity:0.96" fill="#000000" d="M 242.5,-0.5 C 252.5,-0.5 262.5,-0.5 272.5,-0.5C 298.882,3.35748 321.548,14.6908 340.5,33.5C 333.121,40.3827 326.621,48.0493 321,56.5C 320.282,57.4506 319.449,57.6172 318.5,57C 292.519,31.6675 262.186,24.6675 227.5,36C 189.056,53.3728 170.89,83.2062 173,125.5C 179.519,164.685 202.019,189.185 240.5,199C 271.058,204.201 297.392,196.035 319.5,174.5C 325.904,182.763 332.904,190.597 340.5,198C 304.613,231.301 263.28,240.301 216.5,225C 177.265,208.759 152.765,179.926 143,138.5C 135.162,83.6862 154.662,41.8529 201.5,13C 214.596,6.35635 228.263,1.85635 242.5,-0.5 Z"/></g>
<g><path style="opacity:0.971" fill="#000000" d="M 400.5,22.5 C 441.462,19.8955 472.629,35.8955 494,70.5C 514.349,115.086 506.849,154.253 471.5,188C 445.416,207.962 416.416,213.628 384.5,205C 339.133,187.943 317.299,155.109 319,106.5C 323.712,69.8986 342.878,44.0652 376.5,29C 384.463,26.1785 392.463,24.0118 400.5,22.5 Z M 379.5,66.5 C 394.256,65.9265 402.589,72.9265 404.5,87.5C 401.91,103.631 392.577,110.131 376.5,107C 362,98.8335 359.167,87.6669 368,73.5C 371.257,70.048 375.09,67.7147 379.5,66.5 Z M 450.5,66.5 C 459.849,66.9669 462.682,71.3002 459,79.5C 431.167,107.333 403.333,135.167 375.5,163C 368.735,166.116 364.401,164.116 362.5,157C 363.196,155.107 364.03,153.274 365,151.5C 393.395,122.938 421.895,94.6047 450.5,66.5 Z M 434.5,123.5 C 449.978,121.813 458.978,128.646 461.5,144C 457.562,161.935 446.895,167.935 429.5,162C 419.663,154.481 417.163,144.981 422,133.5C 425.191,128.837 429.358,125.503 434.5,123.5 Z"/></g>
<g><path style="opacity:0.935" fill="#000000" d="M 254.5,52.5 C 258.306,52.02 261.639,53.02 264.5,55.5C 266.138,59.9804 266.971,64.6471 267,69.5C 272.919,70.9597 277.919,73.9597 282,78.5C 284.107,85.9752 281.44,90.3085 274,91.5C 269.965,90.4521 266.132,88.9521 262.5,87C 252.601,85.5766 247.767,89.7432 248,99.5C 250.447,105.478 254.947,107.978 261.5,107C 281.958,115.695 287.458,130.195 278,150.5C 274.486,155.183 269.986,158.516 264.5,160.5C 263.672,164.796 263.172,169.129 263,173.5C 261.471,176.934 258.804,178.6 255,178.5C 252.186,178.592 249.853,177.592 248,175.5C 246.621,170.964 246.121,166.297 246.5,161.5C 238.164,160.481 232.498,156.147 229.5,148.5C 230.171,143.162 233.171,140.162 238.5,139.5C 242.144,140.312 245.478,141.812 248.5,144C 258.861,146.596 264.361,142.763 265,132.5C 264.31,129.804 262.81,127.637 260.5,126C 237.89,123.403 228.057,110.903 231,88.5C 234.276,80.0563 240.11,74.0563 248.5,70.5C 249.328,66.2044 249.828,61.8711 250,57.5C 251.025,55.313 252.525,53.6464 254.5,52.5 Z"/></g>
<g><path style="opacity:0.827" fill="#000000" d="M 380.5,82.5 C 385.093,81.4183 388.093,83.085 389.5,87.5C 387.213,92.7969 383.713,93.7969 379,90.5C 378.109,87.5024 378.609,84.8357 380.5,82.5 Z"/></g>
<g><path style="opacity:0.784" fill="#000000" d="M 437.5,138.5 C 443.665,137.829 446.165,140.496 445,146.5C 441.255,150.566 437.922,150.233 435,145.5C 434.683,142.793 435.516,140.46 437.5,138.5 Z"/></g>
<g><path style="opacity:0.941" fill="#000000" d="M 394.5,283.5 C 410.746,281.784 422.412,288.117 429.5,302.5C 427.608,304.793 425.275,306.626 422.5,308C 407.586,316.04 392.753,324.206 378,332.5C 371.598,320.263 361.765,312.263 348.5,308.5C 359.803,301.177 371.469,294.344 383.5,288C 387.157,286.178 390.824,284.678 394.5,283.5 Z"/></g>
<g><path style="opacity:0.979" fill="#000000" d="M 199.5,285.5 C 211.675,284.939 223.675,286.105 235.5,289C 275.817,301.55 315.817,314.883 355.5,329C 365.194,338.436 367.027,349.269 361,361.5C 354.198,370.213 345.364,373.379 334.5,371C 303.833,361 273.167,351 242.5,341C 234.841,340.329 231.674,343.829 233,351.5C 233.833,353.667 235.333,355.167 237.5,356C 269.438,366.535 301.438,376.868 333.5,387C 361.111,388.396 377.111,375.396 381.5,348C 412.167,331.333 442.833,314.667 473.5,298C 491.822,294.335 502.489,301.669 505.5,320C 505.094,328.145 501.761,334.812 495.5,340C 430.628,375.602 365.628,410.935 300.5,446C 289.403,449.339 278.07,450.339 266.5,449C 244.552,442.461 222.552,436.128 200.5,430C 183.63,427.978 167.63,430.812 152.5,438.5C 132.343,404.862 112.677,370.862 93.5,336.5C 119.512,321.492 145.845,306.992 172.5,293C 181.406,289.693 190.406,287.193 199.5,285.5 Z"/></g>
<g><path style="opacity:0.974" fill="#000000" d="M 110.5,511.5 C 107.5,511.5 104.5,511.5 101.5,511.5C 69.095,456.571 37.2616,401.238 6,345.5C 5.20307,341.893 6.0364,338.726 8.5,336C 21.5,328.333 34.5,320.667 47.5,313C 53.1414,309.284 58.308,309.784 63,314.5C 93.6667,368.5 124.333,422.5 155,476.5C 156.14,480.389 155.307,483.722 152.5,486.5C 138.437,494.859 124.437,503.193 110.5,511.5 Z"/></g>
</svg>
