<?xml version="1.0" encoding="UTF-8"?>
<!DOCTYPE svg PUBLIC "-//W3C//DTD SVG 1.1//EN" "http://www.w3.org/Graphics/SVG/1.1/DTD/svg11.dtd">
<svg xmlns="http://www.w3.org/2000/svg" version="1.1" width="512px" height="512px" style="shape-rendering:geometricPrecision; text-rendering:geometricPrecision; image-rendering:optimizeQuality; fill-rule:evenodd; clip-rule:evenodd" xmlns:xlink="http://www.w3.org/1999/xlink">
<g><path style="opacity:0.982" fill="#000000" d="M 366.5,-0.5 C 376.833,-0.5 387.167,-0.5 397.5,-0.5C 462.953,12.2862 500.953,51.6196 511.5,117.5C 511.5,124.833 511.5,132.167 511.5,139.5C 504.51,192.005 476.51,228.505 427.5,249C 379.315,264.761 335.648,256.761 296.5,225C 253.181,181.87 242.681,131.703 265,74.5C 286.221,32.3175 320.055,7.31754 366.5,-0.5 Z M 380.5,40.5 C 390.234,41.7335 395.901,47.2335 397.5,57C 404.213,59.1034 410.046,62.6034 415,67.5C 420.315,76.7413 418.481,84.2413 409.5,90C 402.279,92.0427 395.946,90.376 390.5,85C 388.236,84.7638 386.069,84.2638 384,83.5C 375.393,83.7678 371.393,88.1011 372,96.5C 375.752,99.6288 379.919,102.129 384.5,104C 396.373,107.018 406.873,112.518 416,120.5C 428.63,138.433 428.63,156.433 416,174.5C 410.803,180.195 404.636,184.528 397.5,187.5C 397.24,197.92 392.074,204.253 382,206.5C 372.644,204.646 367.81,198.98 367.5,189.5C 357.562,187.915 349.062,183.581 342,176.5C 337.097,163.969 341.264,156.636 354.5,154.5C 356.167,154.667 357.833,154.833 359.5,155C 367.547,161.076 376.547,163.076 386.5,161C 397.214,155.464 399.214,147.797 392.5,138C 379.045,133.605 366.378,127.605 354.5,120C 340.828,105.62 338.994,89.7868 349,72.5C 353.494,65.5154 359.661,60.8487 367.5,58.5C 367.286,49.0677 371.62,43.0677 380.5,40.5 Z"/></g>
<g><path style="opacity:0.984" fill="#000000" d="M 161.5,112.5 C 182.833,112.5 204.167,112.5 225.5,112.5C 224.195,123.83 224.195,135.164 225.5,146.5C 199.167,146.5 172.833,146.5 146.5,146.5C 148.35,137.768 150.516,129.101 153,120.5C 155.074,116.923 157.907,114.256 161.5,112.5 Z"/></g>
<g><path style="opacity:0.987" fill="#000000" d="M -0.5,267.5 C -0.5,264.833 -0.5,262.167 -0.5,259.5C 1.22399,254.606 4.55732,251.106 9.5,249C 22.8333,248.667 36.1667,248.333 49.5,248C 53.2272,234.593 56.7272,221.093 60,207.5C 65.7714,191.395 76.9381,181.228 93.5,177C 139.832,176.5 186.165,176.333 232.5,176.5C 248.849,223.686 280.182,256.853 326.5,276C 341.986,281.797 357.986,284.964 374.5,285.5C 375.675,291.866 377.008,298.2 378.5,304.5C 325.833,304.5 273.167,304.5 220.5,304.5C 214.18,270.349 193.68,251.683 159,248.5C 124.32,251.683 103.82,270.349 97.5,304.5C 76.8306,304.667 56.164,304.5 35.5,304C 37.8333,295.667 40.1667,287.333 42.5,279C 31.5,278.667 20.5,278.333 9.5,278C 4.55732,275.894 1.22399,272.394 -0.5,267.5 Z"/></g>
<g><path style="opacity:0.959" fill="#000000" d="M 150.5,278.5 C 165.581,276.02 177.748,280.687 187,292.5C 189.354,296.203 190.854,300.203 191.5,304.5C 169.833,304.5 148.167,304.5 126.5,304.5C 129.348,290.988 137.348,282.321 150.5,278.5 Z"/></g>
<g><path style="opacity:0.986" fill="#000000" d="M -0.5,382.5 C -0.5,374.5 -0.5,366.5 -0.5,358.5C 2.91297,346.586 10.5796,338.753 22.5,335C 146.876,334.007 271.209,334.341 395.5,336C 403.726,339.893 409.559,346.059 413,354.5C 414.553,363.772 414.886,373.105 414,382.5C 379.167,408.667 344.333,434.833 309.5,461C 297.601,462.459 285.601,462.959 273.5,462.5C 269.292,443.67 264.459,425.003 259,406.5C 255.945,402.255 251.778,400.089 246.5,400C 220.167,399.333 193.833,399.333 167.5,400C 160.015,400.485 155.181,404.318 153,411.5C 148.672,428.477 144.506,445.477 140.5,462.5C 128.399,462.959 116.399,462.459 104.5,461C 69.6228,434.616 34.6228,408.45 -0.5,382.5 Z M 86.5,368.5 C 92.1764,368.334 97.8431,368.501 103.5,369C 115.982,372.131 119.815,379.631 115,391.5C 111.984,395.092 108.151,397.258 103.5,398C 94.8316,399.336 86.4983,398.336 78.5,395C 70.5,387.333 70.5,379.667 78.5,372C 81.1579,370.522 83.8245,369.355 86.5,368.5 Z M 310.5,368.5 C 316.176,368.334 321.843,368.501 327.5,369C 339.982,372.131 343.815,379.631 339,391.5C 335.984,395.092 332.151,397.258 327.5,398C 318.832,399.336 310.498,398.336 302.5,395C 294.5,387.333 294.5,379.667 302.5,372C 305.158,370.522 307.825,369.355 310.5,368.5 Z"/></g>
<g><path style="opacity:0.972" fill="#000000" d="M -0.5,418.5 C 31.1041,441.592 62.6041,464.925 94,488.5C 96.5393,498.754 93.3727,506.421 84.5,511.5C 59.5,511.5 34.5,511.5 9.5,511.5C 4.74828,509.083 1.41495,505.417 -0.5,500.5C -0.5,473.167 -0.5,445.833 -0.5,418.5 Z"/></g>
<g><path style="opacity:0.971" fill="#000000" d="M 404.5,511.5 C 379.5,511.5 354.5,511.5 329.5,511.5C 320.627,506.421 317.461,498.754 320,488.5C 351.308,465.359 382.475,442.026 413.5,418.5C 414.667,445.827 414.833,473.161 414,500.5C 412.401,505.594 409.234,509.261 404.5,511.5 Z"/></g>
<g><path style="opacity:0.978" fill="#000000" d="M 177.5,429.5 C 197.167,429.5 216.833,429.5 236.5,429.5C 238.621,440.483 241.287,451.316 244.5,462C 219.5,462.667 194.5,462.667 169.5,462C 172.713,451.316 175.379,440.483 177.5,429.5 Z"/></g>
</svg>
