<?xml version="1.0" encoding="UTF-8"?>
<!DOCTYPE svg PUBLIC "-//W3C//DTD SVG 1.1//EN" "http://www.w3.org/Graphics/SVG/1.1/DTD/svg11.dtd">
<svg xmlns="http://www.w3.org/2000/svg" version="1.1" width="512px" height="512px" style="shape-rendering:geometricPrecision; text-rendering:geometricPrecision; image-rendering:optimizeQuality; fill-rule:evenodd; clip-rule:evenodd" xmlns:xlink="http://www.w3.org/1999/xlink">
<g><path style="opacity:0.979" fill="#000000" d="M 511.5,205.5 C 511.5,209.5 511.5,213.5 511.5,217.5C 504.715,236.07 495.548,253.403 484,269.5C 465.683,295.158 445.849,319.658 424.5,343C 287.5,343.667 150.5,343.667 13.5,343C 8.91217,333.038 4.2455,323.205 -0.5,313.5C -0.5,312.5 -0.5,311.5 -0.5,310.5C 11.1783,310.728 22.845,310.895 34.5,311C 45.5,294.667 56.5,278.333 67.5,262C 104.705,252.199 142.038,243.032 179.5,234.5C 177.664,217.147 175.664,199.814 173.5,182.5C 164.5,182.5 155.5,182.5 146.5,182.5C 146.5,177.5 146.5,172.5 146.5,167.5C 206.168,167.333 265.834,167.5 325.5,168C 340.167,179.667 354.833,191.333 369.5,203C 400.918,200.054 432.418,197.887 464,196.5C 478.057,196.157 491.891,197.657 505.5,201C 507.66,202.332 509.66,203.832 511.5,205.5 Z M 187.5,182.5 C 200.5,182.5 213.5,182.5 226.5,182.5C 228.227,195.699 230.227,208.865 232.5,222C 232.167,222.833 231.833,223.667 231.5,224.5C 218.965,227.34 206.465,229.34 194,230.5C 191.832,214.486 189.665,198.486 187.5,182.5 Z M 240.5,182.5 C 256.5,182.5 272.5,182.5 288.5,182.5C 290.779,193.115 293.445,203.615 296.5,214C 280.143,216.789 263.81,219.622 247.5,222.5C 244.948,209.19 242.615,195.857 240.5,182.5 Z M 302.5,183.5 C 307.985,182.348 313.651,182.182 319.5,183C 330.5,190.667 341.5,198.333 352.5,206C 338.595,207.986 324.762,210.153 311,212.5C 308.3,202.681 305.467,193.015 302.5,183.5 Z"/></g>
</svg>
