<?xml version="1.0" encoding="UTF-8"?>
<!DOCTYPE svg PUBLIC "-//W3C//DTD SVG 1.1//EN" "http://www.w3.org/Graphics/SVG/1.1/DTD/svg11.dtd">
<svg xmlns="http://www.w3.org/2000/svg" version="1.1" width="512px" height="512px" style="shape-rendering:geometricPrecision; text-rendering:geometricPrecision; image-rendering:optimizeQuality; fill-rule:evenodd; clip-rule:evenodd" xmlns:xlink="http://www.w3.org/1999/xlink">
<g><path style="opacity:0.972" fill="#000000" d="M 323.5,36.5 C 351.383,35.2299 367.883,48.2299 373,75.5C 373.404,100.854 361.238,116.354 336.5,122C 311.306,123.795 295.14,112.628 288,88.5C 285.154,60.8868 296.987,43.5535 323.5,36.5 Z"/></g>
<g><path style="opacity:0.977" fill="#000000" d="M 245.5,111.5 C 257.297,109.86 268.297,112.027 278.5,118C 297.167,136 315.833,154 334.5,172C 355.162,187.483 378.495,195.317 404.5,195.5C 404.5,209.833 404.5,224.167 404.5,238.5C 366.344,239.061 332.677,227.228 303.5,203C 295.667,195.167 287.833,187.333 280,179.5C 263.862,196.638 247.362,213.472 230.5,230C 246,245.5 261.5,261 277,276.5C 277.5,321.165 277.667,365.832 277.5,410.5C 262.833,410.5 248.167,410.5 233.5,410.5C 233.667,374.832 233.5,339.165 233,303.5C 210.035,283.537 187.369,263.204 165,242.5C 151.14,224.831 150.14,206.498 162,187.5C 185.167,164.333 208.333,141.167 231.5,118C 236.137,115.511 240.804,113.344 245.5,111.5 Z"/></g>
<g><path style="opacity:0.965" fill="#000000" d="M -0.5,381.5 C -0.5,372.167 -0.5,362.833 -0.5,353.5C 7.28168,309.541 32.2817,280.041 74.5,265C 125.825,252.602 166.658,267.769 197,310.5C 219,348.5 219,386.5 197,424.5C 166.658,467.231 125.825,482.398 74.5,470C 32.2817,454.959 7.28168,425.459 -0.5,381.5 Z M 96.5,293.5 C 139.956,291.814 167.456,311.814 179,353.5C 183.722,394.236 167.222,422.403 129.5,438C 93.272,447.262 64.4387,436.762 43,406.5C 25.3822,372.325 29.5489,341.158 55.5,313C 67.4278,302.701 81.0944,296.201 96.5,293.5 Z"/></g>
<g><path style="opacity:0.965" fill="#000000" d="M 511.5,353.5 C 511.5,362.833 511.5,372.167 511.5,381.5C 503.718,425.459 478.718,454.959 436.5,470C 385.175,482.398 344.342,467.231 314,424.5C 292,386.5 292,348.5 314,310.5C 344.342,267.769 385.175,252.602 436.5,265C 478.718,280.041 503.718,309.541 511.5,353.5 Z M 395.5,293.5 C 439.802,292.046 467.302,312.713 478,355.5C 481.501,392.68 466.667,419.513 433.5,436C 394.942,448.786 364.109,438.619 341,405.5C 323.297,369.605 328.797,337.772 357.5,310C 368.944,301.439 381.611,295.939 395.5,293.5 Z"/></g>
</svg>
