<?xml version="1.0" encoding="UTF-8"?>
<!DOCTYPE svg PUBLIC "-//W3C//DTD SVG 1.1//EN" "http://www.w3.org/Graphics/SVG/1.1/DTD/svg11.dtd">
<svg xmlns="http://www.w3.org/2000/svg" version="1.1" width="512px" height="512px" style="shape-rendering:geometricPrecision; text-rendering:geometricPrecision; image-rendering:optimizeQuality; fill-rule:evenodd; clip-rule:evenodd" xmlns:xlink="http://www.w3.org/1999/xlink">
<g><path style="opacity:0.982" fill="#000000" d="M 123.5,42.5 C 213.203,42.0127 302.869,42.5127 392.5,44C 418.721,51.8891 433.887,69.3891 438,96.5C 438.5,108.829 438.667,121.162 438.5,133.5C 451.894,133.075 465.227,133.575 478.5,135C 490.13,139.631 496.963,148.131 499,160.5C 499.167,169.833 499.333,179.167 499.5,188.5C 499.631,198.903 499.131,209.236 498,219.5C 496.749,222.381 494.583,224.214 491.5,225C 486.167,225.667 480.833,225.667 475.5,225C 471.23,223.73 468.73,220.896 468,216.5C 467.5,199.17 467.333,181.837 467.5,164.5C 457.833,164.5 448.167,164.5 438.5,164.5C 438.667,263.167 438.5,361.834 438,460.5C 436.895,463.937 434.728,466.437 431.5,468C 415.5,468.667 399.5,468.667 383.5,468C 380.272,466.437 378.105,463.937 377,460.5C 376.5,453.174 376.334,445.841 376.5,438.5C 295.833,438.5 215.167,438.5 134.5,438.5C 134.666,445.841 134.5,453.174 134,460.5C 132.895,463.937 130.728,466.437 127.5,468C 111.5,468.667 95.5,468.667 79.5,468C 76.2716,466.437 74.1049,463.937 73,460.5C 72.5,361.834 72.3333,263.167 72.5,164.5C 62.8333,164.5 53.1667,164.5 43.5,164.5C 43.6666,181.837 43.4999,199.17 43,216.5C 42.2703,220.896 39.7703,223.73 35.5,225C 30.1667,225.667 24.8333,225.667 19.5,225C 16.4173,224.214 14.2506,222.381 13,219.5C 11.8691,209.236 11.3691,198.903 11.5,188.5C 11.6667,179.167 11.8333,169.833 12,160.5C 14.0368,148.131 20.8701,139.631 32.5,135C 45.7731,133.575 59.1065,133.075 72.5,133.5C 72.3335,121.162 72.5001,108.829 73,96.5C 78.0329,67.3049 94.8662,49.3049 123.5,42.5 Z M 176.5,73.5 C 229.168,73.3333 281.834,73.5 334.5,74C 345.97,78.7146 348.803,86.5479 343,97.5C 339.888,100.806 336.055,102.639 331.5,103C 280.833,103.667 230.167,103.667 179.5,103C 170.756,102.09 165.756,97.2562 164.5,88.5C 165.601,81.0765 169.601,76.0765 176.5,73.5 Z M 115.5,134.5 C 156.833,134.5 198.167,134.5 239.5,134.5C 239.5,184.833 239.5,235.167 239.5,285.5C 198.165,285.667 156.832,285.5 115.5,285C 108.348,282.844 104.515,278.01 104,270.5C 103.333,230.167 103.333,189.833 104,149.5C 104.713,141.97 108.546,136.97 115.5,134.5 Z M 271.5,134.5 C 312.835,134.333 354.168,134.5 395.5,135C 402.652,137.156 406.485,141.99 407,149.5C 407.667,189.833 407.667,230.167 407,270.5C 406.485,278.01 402.652,282.844 395.5,285C 354.168,285.5 312.835,285.667 271.5,285.5C 271.5,235.167 271.5,184.833 271.5,134.5 Z M 112.5,336.5 C 126.837,336.333 141.171,336.5 155.5,337C 158.937,338.105 161.437,340.272 163,343.5C 163.667,348.833 163.667,354.167 163,359.5C 161.132,363.521 157.965,365.687 153.5,366C 139.111,366.93 124.778,366.597 110.5,365C 105.443,362.008 103.11,357.508 103.5,351.5C 103.232,344.344 106.232,339.344 112.5,336.5 Z M 355.5,336.5 C 370.905,336.048 386.238,336.548 401.5,338C 407.421,344.152 408.921,351.318 406,359.5C 404.132,363.521 400.965,365.687 396.5,366C 382.111,366.93 367.778,366.597 353.5,365C 351,363.833 349.167,362 348,359.5C 347.333,354.167 347.333,348.833 348,343.5C 349.767,340.228 352.267,337.895 355.5,336.5 Z"/></g>
</svg>
