<?xml version="1.0" encoding="UTF-8"?>
<!DOCTYPE svg PUBLIC "-//W3C//DTD SVG 1.1//EN" "http://www.w3.org/Graphics/SVG/1.1/DTD/svg11.dtd">
<svg xmlns="http://www.w3.org/2000/svg" version="1.1" width="512px" height="512px" style="shape-rendering:geometricPrecision; text-rendering:geometricPrecision; image-rendering:optimizeQuality; fill-rule:evenodd; clip-rule:evenodd" xmlns:xlink="http://www.w3.org/1999/xlink">
<g><path style="opacity:0.985" fill="#000000" d="M 511.5,196.5 C 511.5,202.5 511.5,208.5 511.5,214.5C 510.2,218.057 508.867,221.724 507.5,225.5C 505.972,226.861 504.305,228.028 502.5,229C 485.833,229.333 469.167,229.667 452.5,230C 461.265,233.763 466.765,240.263 469,249.5C 469.667,304.833 469.667,360.167 469,415.5C 467.928,419.573 465.428,422.407 461.5,424C 439.5,424.667 417.5,424.667 395.5,424C 391.502,422.514 389.002,419.68 388,415.5C 387.5,395.836 387.333,376.169 387.5,356.5C 299.5,356.5 211.5,356.5 123.5,356.5C 123.667,376.169 123.5,395.836 123,415.5C 121.998,419.68 119.498,422.514 115.5,424C 93.5,424.667 71.5,424.667 49.5,424C 45.5721,422.407 43.0721,419.573 42,415.5C 41.3333,360.167 41.3333,304.833 42,249.5C 44.2346,240.263 49.7346,233.763 58.5,230C 41.8333,229.667 25.1667,229.333 8.5,229C 6.69506,228.028 5.02839,226.861 3.5,225.5C 2.13344,221.724 0.800102,218.057 -0.5,214.5C -0.5,208.5 -0.5,202.5 -0.5,196.5C 0.869545,192.571 2.36954,188.571 4,184.5C 6.04241,182.396 8.54241,181.229 11.5,181C 27.5,180.333 43.5,180.333 59.5,181C 62.4576,181.229 64.9576,182.396 67,184.5C 68.6369,187.717 69.9702,191.05 71,194.5C 81.8032,164.423 92.8032,134.423 104,104.5C 109.897,94.8069 118.397,88.9735 129.5,87C 213.5,86.3333 297.5,86.3333 381.5,87C 392.603,88.9735 401.103,94.8069 407,104.5C 418.197,134.423 429.197,164.423 440,194.5C 441.03,191.05 442.363,187.717 444,184.5C 446.042,182.396 448.542,181.229 451.5,181C 467.5,180.333 483.5,180.333 499.5,181C 502.458,181.229 504.958,182.396 507,184.5C 508.63,188.571 510.13,192.571 511.5,196.5 Z M 140.5,129.5 C 217.167,129.5 293.833,129.5 370.5,129.5C 382.167,162.833 393.833,196.167 405.5,229.5C 305.166,229.667 204.833,229.5 104.5,229C 117.195,196.082 129.195,162.915 140.5,129.5 Z M 98.5,263.5 C 116.542,263.084 134.542,263.584 152.5,265C 162.631,269.761 166.464,277.595 164,288.5C 161.414,294.088 157.247,297.921 151.5,300C 131.102,300.964 110.769,300.631 90.5,299C 78.7551,290.532 77.0885,280.532 85.5,269C 89.4736,266.005 93.8069,264.171 98.5,263.5 Z M 364.5,263.5 C 382.542,263.084 400.542,263.584 418.5,265C 428.67,269.838 432.503,277.671 430,288.5C 427.414,294.088 423.247,297.921 417.5,300C 397.102,300.964 376.769,300.631 356.5,299C 344.701,290.979 342.868,281.145 351,269.5C 355.057,266.215 359.557,264.215 364.5,263.5 Z"/></g>
</svg>
