<?xml version="1.0" encoding="UTF-8"?>
<!DOCTYPE svg PUBLIC "-//W3C//DTD SVG 1.1//EN" "http://www.w3.org/Graphics/SVG/1.1/DTD/svg11.dtd">
<svg xmlns="http://www.w3.org/2000/svg" version="1.1" width="512px" height="512px" style="shape-rendering:geometricPrecision; text-rendering:geometricPrecision; image-rendering:optimizeQuality; fill-rule:evenodd; clip-rule:evenodd" xmlns:xlink="http://www.w3.org/1999/xlink">
<g><path style="opacity:0.991" fill="#000000" d="M 188.5,63.5 C 271.758,59.2026 334.591,92.5359 377,163.5C 403.265,216.044 406.598,270.044 387,325.5C 356.688,395.765 303.522,436.265 227.5,447C 142.811,452.082 79.3109,418.249 37,345.5C 11.698,293.44 8.69796,240.107 28,185.5C 52.1161,126.718 94.6161,88.2177 155.5,70C 166.526,67.2277 177.526,65.061 188.5,63.5 Z M 191.5,143.5 C 202.167,143.5 212.833,143.5 223.5,143.5C 223.5,154.167 223.5,164.833 223.5,175.5C 239.5,175.5 255.5,175.5 271.5,175.5C 271.5,186.167 271.5,196.833 271.5,207.5C 242.831,207.333 214.165,207.5 185.5,208C 176.518,212.473 173.351,219.64 176,229.5C 177.833,234 181,237.167 185.5,239C 201.526,239.176 217.526,239.843 233.5,241C 260.522,249.695 272.689,268.195 270,296.5C 263.601,320.407 248.101,333.073 223.5,334.5C 223.5,345.5 223.5,356.5 223.5,367.5C 212.833,367.5 202.167,367.5 191.5,367.5C 191.5,356.833 191.5,346.167 191.5,335.5C 175.5,335.5 159.5,335.5 143.5,335.5C 143.5,324.833 143.5,314.167 143.5,303.5C 172.169,303.667 200.835,303.5 229.5,303C 238.482,298.527 241.649,291.36 239,281.5C 237.167,277 234,273.833 229.5,272C 213.805,271.841 198.138,271.175 182.5,270C 154.923,261.746 142.423,243.246 145,214.5C 151.39,190.604 166.89,177.937 191.5,176.5C 191.5,165.5 191.5,154.5 191.5,143.5 Z"/></g>
<g><path style="opacity:0.981" fill="#000000" d="M 409.5,159.5 C 430.169,159.333 450.836,159.5 471.5,160C 484,163.167 491.833,171 495,183.5C 495.667,194.167 495.667,204.833 495,215.5C 491.833,228 484,235.833 471.5,239C 457.837,239.5 444.171,239.667 430.5,239.5C 428.397,211.528 421.397,184.861 409.5,159.5 Z"/></g>
<g><path style="opacity:0.98" fill="#000000" d="M 430.5,255.5 C 444.171,255.333 457.837,255.5 471.5,256C 484,259.167 491.833,267 495,279.5C 495.667,290.167 495.667,300.833 495,311.5C 491.833,324 484,331.833 471.5,335C 452.833,335.667 434.167,335.667 415.5,335C 425.935,309.56 430.935,283.06 430.5,255.5 Z"/></g>
<g><path style="opacity:0.986" fill="#000000" d="M 408.5,351.5 C 429.503,351.333 450.503,351.5 471.5,352C 484,355.167 491.833,363 495,375.5C 495.667,386.167 495.667,396.833 495,407.5C 491.833,420 484,427.833 471.5,431C 429.5,431.667 387.5,431.667 345.5,431C 372.707,409.307 393.707,382.807 408.5,351.5 Z"/></g>
</svg>
