<?xml version="1.0" encoding="UTF-8"?>
<!DOCTYPE svg PUBLIC "-//W3C//DTD SVG 1.1//EN" "http://www.w3.org/Graphics/SVG/1.1/DTD/svg11.dtd">
<svg xmlns="http://www.w3.org/2000/svg" version="1.1" width="512px" height="512px" style="shape-rendering:geometricPrecision; text-rendering:geometricPrecision; image-rendering:optimizeQuality; fill-rule:evenodd; clip-rule:evenodd" xmlns:xlink="http://www.w3.org/1999/xlink">
<g><path style="opacity:0.921" fill="#000000" d="M 375.5,11.5 C 390.345,15.2807 405.012,19.7807 419.5,25C 423.565,28.096 424.398,31.9293 422,36.5C 415.04,48.2516 408.207,60.0849 401.5,72C 394.484,75.451 390.151,73.451 388.5,66C 391.295,59.4107 394.629,53.0773 398.5,47C 300.722,83.7092 203.055,121.042 105.5,159C 95.0337,162.52 90.867,159.02 93,148.5C 192.88,109.092 293.047,70.2591 393.5,32C 387.5,30 381.5,28 375.5,26C 370.857,23.9276 369.357,20.4276 371,15.5C 372.397,13.9297 373.897,12.5964 375.5,11.5 Z"/></g>
<g><path style="opacity:0.991" fill="#000000" d="M 420.5,86.5 C 445.5,86.5 470.5,86.5 495.5,86.5C 495.5,159.833 495.5,233.167 495.5,306.5C 470.5,306.5 445.5,306.5 420.5,306.5C 420.5,233.167 420.5,159.833 420.5,86.5 Z"/></g>
<g><path style="opacity:0.987" fill="#000000" d="M 285.5,131.5 C 310.5,131.5 335.5,131.5 360.5,131.5C 360.667,182.168 360.5,232.834 360,283.5C 344.189,285.318 331.689,292.651 322.5,305.5C 315.532,306.497 308.532,306.83 301.5,306.5C 308.818,283.767 303.651,264.434 286,248.5C 285.5,209.501 285.333,170.501 285.5,131.5 Z"/></g>
<g><path style="opacity:0.982" fill="#000000" d="M 150.5,176.5 C 175.5,176.5 200.5,176.5 225.5,176.5C 225.667,200.502 225.5,224.502 225,248.5C 207.349,264.434 202.182,283.767 209.5,306.5C 202.468,306.83 195.468,306.497 188.5,305.5C 179.311,292.651 166.811,285.318 151,283.5C 150.5,247.835 150.333,212.168 150.5,176.5 Z"/></g>
<g><path style="opacity:0.982" fill="#000000" d="M 15.5,221.5 C 40.5,221.5 65.5,221.5 90.5,221.5C 90.5,249.833 90.5,278.167 90.5,306.5C 65.5,306.5 40.5,306.5 15.5,306.5C 15.5,278.167 15.5,249.833 15.5,221.5 Z"/></g>
<g><path style="opacity:0.968" fill="#000000" d="M 251.5,250.5 C 272.192,250.037 285.359,259.704 291,279.5C 293.817,299.038 286.317,312.871 268.5,321C 247.806,326.733 232.306,320.233 222,301.5C 214.902,274.479 224.735,257.479 251.5,250.5 Z"/></g>
<g><path style="opacity:0.964" fill="#000000" d="M 144.5,296.5 C 168.739,297.074 182.073,309.407 184.5,333.5C 180.303,360.6 164.636,372.1 137.5,368C 115.618,358.735 107.785,342.568 114,319.5C 120.336,306.599 130.503,298.932 144.5,296.5 Z"/></g>
<g><path style="opacity:0.965" fill="#000000" d="M 359.5,296.5 C 389.027,298.525 401.86,314.191 398,343.5C 389.618,364.109 374.452,372.276 352.5,368C 329.744,358.09 322.244,341.257 330,317.5C 336.418,305.565 346.252,298.565 359.5,296.5 Z"/></g>
<g><path style="opacity:0.973" fill="#000000" d="M 253.5,342.5 C 285.026,343.249 308.693,357.083 324.5,384C 296.464,398.553 279.464,421.386 273.5,452.5C 261.5,453.833 249.5,453.833 237.5,452.5C 231.536,421.386 214.536,398.553 186.5,384C 201.568,358.465 223.902,344.631 253.5,342.5 Z"/></g>
<g><path style="opacity:0.982" fill="#000000" d="M 135.5,389.5 C 173.521,386.087 201.354,401.087 219,434.5C 224.464,446.616 226.464,459.282 225,472.5C 221.065,481.097 214.565,486.931 205.5,490C 169.053,501.868 132.386,502.535 95.5,492C 84.9715,488.834 76.8049,482.667 71,473.5C 69.3668,434.592 86.5335,407.759 122.5,393C 126.999,391.961 131.332,390.794 135.5,389.5 Z"/></g>
<g><path style="opacity:0.982" fill="#000000" d="M 350.5,389.5 C 389.531,386.09 417.698,401.757 435,436.5C 440.012,448.368 441.678,460.701 440,473.5C 434.195,482.667 426.028,488.834 415.5,492C 378.614,502.535 341.947,501.868 305.5,490C 286.465,482.611 280.298,469.111 287,449.5C 296.084,416.58 317.25,396.58 350.5,389.5 Z"/></g>
</svg>
