<?xml version="1.0" encoding="UTF-8"?>
<!DOCTYPE svg PUBLIC "-//W3C//DTD SVG 1.1//EN" "http://www.w3.org/Graphics/SVG/1.1/DTD/svg11.dtd">
<svg xmlns="http://www.w3.org/2000/svg" version="1.1" width="512px" height="512px" style="shape-rendering:geometricPrecision; text-rendering:geometricPrecision; image-rendering:optimizeQuality; fill-rule:evenodd; clip-rule:evenodd" xmlns:xlink="http://www.w3.org/1999/xlink">
<g><path style="opacity:0.981" fill="#000000" d="M 229.5,-0.5 C 246.833,-0.5 264.167,-0.5 281.5,-0.5C 287.423,17.4355 293.256,35.4355 299,53.5C 299.388,54.428 300.055,55.0946 301,55.5C 323.06,60.5167 343.727,68.8501 363,80.5C 380.227,72.4698 397.394,64.3031 414.5,56C 415.5,55.3333 416.5,55.3333 417.5,56C 429.5,68 441.5,80 453.5,92C 444.833,109.667 436.167,127.333 427.5,145C 440.105,165.215 449.438,186.882 455.5,210C 455.905,210.945 456.572,211.612 457.5,212C 475.565,217.744 493.565,223.577 511.5,229.5C 511.5,246.833 511.5,264.167 511.5,281.5C 493.195,287.49 474.861,293.49 456.5,299.5C 455.134,305.962 453.301,312.296 451,318.5C 450.282,319.451 449.449,319.617 448.5,319C 434.667,305.167 420.833,291.333 407,277.5C 413.65,213.044 390.484,162.544 337.5,126C 283.684,95.0582 229.684,94.7249 175.5,125C 122.934,160.137 98.9342,209.47 103.5,273C 112.668,334.833 146.334,377.166 204.5,400C 221.182,405.803 238.349,408.637 256,408.5C 266.544,408.284 277.044,407.784 287.5,407C 301.014,420.347 314.347,433.847 327.5,447.5C 319.022,450.77 310.355,453.437 301.5,455.5C 295.427,474.388 288.76,493.054 281.5,511.5C 264.167,511.5 246.833,511.5 229.5,511.5C 222.601,493.639 215.601,475.806 208.5,458C 185.698,452.514 164.532,443.347 145,430.5C 127.333,438.833 109.667,447.167 92,455.5C 79.7079,444.209 67.7079,432.542 56,420.5C 55.3333,419.5 55.3333,418.5 56,417.5C 64.3031,400.394 72.4698,383.227 80.5,366C 69.1071,345.649 60.7737,324.149 55.5,301.5C 36.6124,295.427 17.9457,288.76 -0.5,281.5C -0.5,264.167 -0.5,246.833 -0.5,229.5C 17.958,222.272 36.6247,215.605 55.5,209.5C 60.0816,186.51 68.4149,165.01 80.5,145C 72.4698,127.773 64.3031,110.606 56,93.5C 55.3333,92.5 55.3333,91.5 56,90.5C 67.7001,79.1315 79.7001,68.1315 92,57.5C 109.667,66.1667 127.333,74.8333 145,83.5C 164.871,70.4831 186.371,61.1497 209.5,55.5C 215.573,36.6124 222.24,17.9457 229.5,-0.5 Z"/></g>
<g><path style="opacity:0.979" fill="#000000" d="M 511.5,469.5 C 511.5,470.833 511.5,472.167 511.5,473.5C 507.915,495.915 494.748,508.248 472,510.5C 464.644,510.619 457.81,508.786 451.5,505C 398.861,453.361 346.527,401.361 294.5,349C 248.005,364.336 208.505,353.836 176,317.5C 154.743,290.217 148.743,259.883 158,226.5C 176.5,243.667 195,260.833 213.5,278C 245.286,292.765 269.786,284.931 287,254.5C 293.419,236.565 291.085,219.898 280,204.5C 262.986,187.653 246.153,170.653 229.5,153.5C 278.319,142.05 316.819,157.05 345,198.5C 357.214,219.234 361.88,241.568 359,265.5C 357.037,275.361 354.704,285.027 352,294.5C 402,344.5 452,394.5 502,444.5C 507.462,452.068 510.628,460.402 511.5,469.5 Z"/></g>
</svg>
