<?xml version="1.0" encoding="UTF-8"?>
<!DOCTYPE svg PUBLIC "-//W3C//DTD SVG 1.1//EN" "http://www.w3.org/Graphics/SVG/1.1/DTD/svg11.dtd">
<svg xmlns="http://www.w3.org/2000/svg" version="1.1" width="512px" height="512px" style="shape-rendering:geometricPrecision; text-rendering:geometricPrecision; image-rendering:optimizeQuality; fill-rule:evenodd; clip-rule:evenodd" xmlns:xlink="http://www.w3.org/1999/xlink">
<g><path style="opacity:0.984" fill="#000000" d="M 247.5,30.5 C 300.879,30.0173 354.213,30.5173 407.5,32C 412.156,33.6468 415.989,36.4802 419,40.5C 427.706,57.4122 436.539,74.2456 445.5,91C 365.5,91.6667 285.5,91.6667 205.5,91C 214.461,74.2456 223.294,57.4122 232,40.5C 235.9,34.98 241.067,31.6466 247.5,30.5 Z"/></g>
<g><path style="opacity:0.843" fill="#000000" d="M 169.5,93.5 C 176.833,93.5 184.167,93.5 191.5,93.5C 190.887,97.3928 189.22,100.726 186.5,103.5C 180.914,102.26 175.247,101.594 169.5,101.5C 169.5,98.8333 169.5,96.1667 169.5,93.5 Z"/></g>
<g><path style="opacity:0.841" fill="#000000" d="M 458.5,94.5 C 465.982,93.508 473.648,93.1746 481.5,93.5C 481.5,96.1667 481.5,98.8333 481.5,101.5C 475.753,101.594 470.086,102.26 464.5,103.5C 462.242,100.643 460.242,97.6434 458.5,94.5 Z"/></g>
<g><path style="opacity:0.965" fill="#000000" d="M 199.5,102.5 C 283.503,102.167 367.503,102.5 451.5,103.5C 455.078,110.991 458.912,118.324 463,125.5C 465.807,131.921 467.807,138.588 469,145.5C 469.5,167.497 469.667,189.497 469.5,211.5C 450.497,211.667 431.497,211.5 412.5,211C 410.167,209.333 407.833,207.667 405.5,206C 384.5,205.667 363.5,205.333 342.5,205C 340.833,204 339.167,203 337.5,202C 326.833,201.667 316.167,201.333 305.5,201C 302.039,194.578 298.706,188.078 295.5,181.5C 321.542,180.964 347.542,180.131 373.5,179C 386.036,174.099 391.536,164.932 390,151.5C 389.097,150.299 387.931,149.465 386.5,149C 349.5,148.667 312.5,148.333 275.5,148C 270.082,143.125 263.749,140.125 256.5,139C 236.79,138.821 217.123,138.321 197.5,137.5C 192.9,138.443 188.233,138.777 183.5,138.5C 184.16,134.687 185.326,131.021 187,127.5C 191.193,119.114 195.36,110.78 199.5,102.5 Z M 452.5,137.5 C 455.079,137.852 456.913,139.186 458,141.5C 463.24,166.579 453.24,178.245 428,176.5C 409.51,179.669 404.177,172.669 412,155.5C 413.833,153.667 415.667,151.833 417.5,150C 429.162,145.504 440.829,141.337 452.5,137.5 Z"/></g>
<g><path style="opacity:0.983" fill="#000000" d="M 100.5,149.5 C 153.879,149.017 207.213,149.517 260.5,151C 265.888,153.055 270.054,156.555 273,161.5C 280.965,177.623 289.131,193.623 297.5,209.5C 217.835,210.667 138.169,210.833 58.5,210C 67,193.5 75.5,177 84,160.5C 88.0701,154.581 93.5701,150.915 100.5,149.5 Z"/></g>
<g><path style="opacity:0.828" fill="#000000" d="M 443.5,151.5 C 444.833,151.5 446.167,151.5 447.5,151.5C 447.665,154.518 447.498,157.518 447,160.5C 446.535,161.931 445.701,163.097 444.5,164C 436.611,165.435 428.611,165.935 420.5,165.5C 420.081,162.675 421.081,160.509 423.5,159C 430.304,156.569 436.971,154.069 443.5,151.5 Z"/></g>
<g><path style="opacity:0.861" fill="#000000" d="M 284.5,159.5 C 315.833,159.5 347.167,159.5 378.5,159.5C 377.017,164.481 373.684,167.647 368.5,169C 341.827,169.833 315.16,169.667 288.5,168.5C 286.88,165.596 285.547,162.596 284.5,159.5 Z"/></g>
<g><path style="opacity:0.861" fill="#000000" d="M 22.5,212.5 C 29.8635,212.169 37.1968,212.503 44.5,213.5C 43.157,216.863 41.3236,219.863 39,222.5C 33.5752,221.225 28.0752,220.558 22.5,220.5C 22.5,217.833 22.5,215.167 22.5,212.5 Z"/></g>
<g><path style="opacity:0.844" fill="#000000" d="M 311.5,213.5 C 318.982,212.508 326.648,212.175 334.5,212.5C 334.5,215.167 334.5,217.833 334.5,220.5C 328.753,220.594 323.086,221.26 317.5,222.5C 315.242,219.643 313.242,216.643 311.5,213.5 Z"/></g>
<g><path style="opacity:0.963" fill="#000000" d="M 52.5,221.5 C 136.503,221.167 220.503,221.5 304.5,222.5C 311.27,234.704 316.937,247.371 321.5,260.5C 278.171,261.333 234.837,261.833 191.5,262C 186.864,262.879 182.531,264.545 178.5,267C 157.833,267.333 137.167,267.667 116.5,268C 112.162,271.75 111.329,276.25 114,281.5C 117.335,290.834 123.835,296.667 133.5,299C 140.826,299.5 148.159,299.666 155.5,299.5C 151.933,307.802 147.933,315.969 143.5,324C 128.167,324.333 112.833,324.667 97.5,325C 95.3428,326.912 93.0094,328.579 90.5,330C 71.5029,330.5 52.5029,330.667 33.5,330.5C 33.077,307.798 33.577,285.132 35,262.5C 39.181,248.137 45.0144,234.47 52.5,221.5 Z M 49.5,256.5 C 62.4526,260.317 75.1193,264.817 87.5,270C 94.1323,276.697 95.9656,284.53 93,293.5C 92.2496,294.126 91.4162,294.626 90.5,295C 80.5,295.667 70.5,295.667 60.5,295C 53.2021,293.703 48.3688,289.536 46,282.5C 45.3333,274.833 45.3333,267.167 46,259.5C 47.1451,258.364 48.3117,257.364 49.5,256.5 Z"/></g>
<g><path style="opacity:0.932" fill="#000000" d="M 435.5,222.5 C 446.833,222.5 458.167,222.5 469.5,222.5C 469.831,230.528 469.498,238.528 468.5,246.5C 457.97,247.824 447.47,247.824 437,246.5C 435.565,238.611 435.065,230.611 435.5,222.5 Z"/></g>
<g><path style="opacity:0.855" fill="#000000" d="M 56.5,270.5 C 64.5729,272.691 72.5729,275.191 80.5,278C 81.9661,279.552 82.9661,281.386 83.5,283.5C 76.1893,284.665 68.856,284.831 61.5,284C 59.508,283.426 58.008,282.259 57,280.5C 56.5017,277.183 56.335,273.85 56.5,270.5 Z"/></g>
<g><path style="opacity:0.984" fill="#000000" d="M 192.5,272.5 C 244.834,272.333 297.168,272.5 349.5,273C 356.039,274.55 361.206,278.05 365,283.5C 373.628,299.922 382.128,316.422 390.5,333C 310.831,333.833 231.165,333.667 151.5,332.5C 160.333,315.5 169.167,298.5 178,281.5C 182.053,277.066 186.886,274.066 192.5,272.5 Z"/></g>
<g><path style="opacity:0.838" fill="#000000" d="M 124.5,279.5 C 138.339,278.174 152.339,278.174 166.5,279.5C 165.167,282.167 163.833,284.833 162.5,287.5C 152.109,288.926 141.776,288.759 131.5,287C 128.254,285.258 125.921,282.758 124.5,279.5 Z"/></g>
<g><path style="opacity:0.834" fill="#000000" d="M 114.5,335.5 C 122.196,335.169 129.862,335.503 137.5,336.5C 135.735,339.709 133.735,342.709 131.5,345.5C 125.914,344.26 120.247,343.594 114.5,343.5C 114.5,340.833 114.5,338.167 114.5,335.5 Z"/></g>
<g><path style="opacity:0.858" fill="#000000" d="M 404.5,335.5 C 411.833,335.5 419.167,335.5 426.5,335.5C 426.5,338.167 426.5,340.833 426.5,343.5C 420.943,343.715 415.443,344.382 410,345.5C 407.393,342.623 405.56,339.289 404.5,335.5 Z"/></g>
<g><path style="opacity:0.933" fill="#000000" d="M 33.5,341.5 C 44.8333,341.5 56.1667,341.5 67.5,341.5C 67.6664,349.174 67.4997,356.841 67,364.5C 66.5,365 66,365.5 65.5,366C 55.5,366.667 45.5,366.667 35.5,366C 35,365.5 34.5,365 34,364.5C 33.5003,356.841 33.3336,349.174 33.5,341.5 Z"/></g>
<g><path style="opacity:0.965" fill="#000000" d="M 144.5,344.5 C 228.501,344.333 312.501,344.5 396.5,345C 404.128,357.752 409.961,371.252 414,385.5C 415.423,408.132 415.923,430.798 415.5,453.5C 396.497,453.667 377.497,453.5 358.5,453C 355.991,451.579 353.657,449.912 351.5,448C 297.833,447.333 244.167,447.333 190.5,448C 188.167,449.667 185.833,451.333 183.5,453C 164.503,453.5 145.503,453.667 126.5,453.5C 126.333,431.831 126.5,410.164 127,388.5C 127.842,384.131 128.842,379.797 130,375.5C 134.845,365.145 139.678,354.812 144.5,344.5 Z M 142.5,379.5 C 155.545,383.181 168.212,387.848 180.5,393.5C 186.139,399.772 187.973,407.106 186,415.5C 185.097,416.701 183.931,417.535 182.5,418C 172.833,418.667 163.167,418.667 153.5,418C 145.444,416.278 140.277,411.444 138,403.5C 137.333,396.833 137.333,390.167 138,383.5C 139.25,381.807 140.75,380.473 142.5,379.5 Z M 397.5,379.5 C 399.679,379.84 401.512,380.84 403,382.5C 403.667,390.167 403.667,397.833 403,405.5C 400.295,412.107 395.461,416.274 388.5,418C 378.5,418.667 368.5,418.667 358.5,418C 357.333,416.833 356.167,415.667 355,414.5C 353.383,406.125 355.549,398.958 361.5,393C 373.438,388.189 385.438,383.689 397.5,379.5 Z M 209.5,390.5 C 250.501,390.333 291.501,390.5 332.5,391C 336.945,394.753 337.778,399.253 335,404.5C 331.665,413.834 325.165,419.667 315.5,422C 285.833,422.667 256.167,422.667 226.5,422C 211.037,417.873 204.537,408.04 207,392.5C 207.995,391.934 208.828,391.267 209.5,390.5 Z"/></g>
<g><path style="opacity:0.833" fill="#000000" d="M 148.5,393.5 C 156.7,395.288 164.7,397.788 172.5,401C 174.919,402.509 175.919,404.675 175.5,407.5C 167.389,407.935 159.389,407.435 151.5,406C 150.299,405.097 149.465,403.931 149,402.5C 148.502,399.518 148.335,396.518 148.5,393.5 Z"/></g>
<g><path style="opacity:0.852" fill="#000000" d="M 389.5,393.5 C 390.5,393.5 391.5,393.5 392.5,393.5C 393.973,405.475 388.639,410.142 376.5,407.5C 372.833,407.167 369.167,406.833 365.5,406.5C 365.861,403.308 367.528,401.141 370.5,400C 377.107,398.299 383.44,396.132 389.5,393.5 Z"/></g>
<g><path style="opacity:0.86" fill="#000000" d="M 217.5,401.5 C 253.168,401.333 288.835,401.5 324.5,402C 322.738,406.763 319.404,409.763 314.5,411C 285.5,411.667 256.5,411.667 227.5,411C 222.352,409.684 219.018,406.517 217.5,401.5 Z"/></g>
<g><path style="opacity:0.932" fill="#000000" d="M 126.5,464.5 C 137.833,464.5 149.167,464.5 160.5,464.5C 160.666,472.174 160.5,479.841 160,487.5C 159.5,488 159,488.5 158.5,489C 148.5,489.667 138.5,489.667 128.5,489C 128,488.5 127.5,488 127,487.5C 126.5,479.841 126.334,472.174 126.5,464.5 Z"/></g>
<g><path style="opacity:0.932" fill="#000000" d="M 381.5,464.5 C 392.833,464.5 404.167,464.5 415.5,464.5C 415.666,472.174 415.5,479.841 415,487.5C 414.5,488 414,488.5 413.5,489C 403.5,489.667 393.5,489.667 383.5,489C 383,488.5 382.5,488 382,487.5C 381.5,479.841 381.334,472.174 381.5,464.5 Z"/></g>
</svg>
