<?xml version="1.0" encoding="UTF-8"?>
<!DOCTYPE svg PUBLIC "-//W3C//DTD SVG 1.1//EN" "http://www.w3.org/Graphics/SVG/1.1/DTD/svg11.dtd">
<svg xmlns="http://www.w3.org/2000/svg" version="1.1" width="512px" height="512px" style="shape-rendering:geometricPrecision; text-rendering:geometricPrecision; image-rendering:optimizeQuality; fill-rule:evenodd; clip-rule:evenodd" xmlns:xlink="http://www.w3.org/1999/xlink">
<g><path style="opacity:0.845" fill="#000000" d="M 106.5,37.5 C 115.207,37.0365 118.707,41.0365 117,49.5C 112.62,54.3433 107.954,54.6767 103,50.5C 100.635,45.1096 101.801,40.7762 106.5,37.5 Z"/></g>
<g><path style="opacity:0.931" fill="#000000" d="M 435.5,52.5 C 454.365,53.2008 460.865,62.5342 455,80.5C 445.368,90.7905 435.368,91.1239 425,81.5C 418.528,68.0753 422.028,58.4086 435.5,52.5 Z"/></g>
<g><path style="opacity:0.943" fill="#000000" d="M 228.5,58.5 C 229.675,58.281 230.675,58.6143 231.5,59.5C 198.206,80.7913 172.206,108.791 153.5,143.5C 152.277,144.614 150.944,144.781 149.5,144C 136.968,135.807 125.301,126.473 114.5,116C 145.88,83.8097 183.88,64.6431 228.5,58.5 Z"/></g>
<g><path style="opacity:0.943" fill="#000000" d="M 272.5,58.5 C 318.34,63.922 357.34,82.922 389.5,115.5C 379.648,126.086 368.648,135.253 356.5,143C 354.956,144.187 353.289,144.52 351.5,144C 331.872,109.209 305.539,80.7093 272.5,58.5 Z"/></g>
<g><path style="opacity:0.973" fill="#000000" d="M 246.5,60.5 C 247.498,97.6629 247.832,134.996 247.5,172.5C 222.148,172.13 197.814,166.963 174.5,157C 169.479,154.827 164.812,152.16 160.5,149C 181.246,111.755 209.913,82.2546 246.5,60.5 Z"/></g>
<g><path style="opacity:0.965" fill="#000000" d="M 256.5,60.5 C 294.53,81.5302 323.863,111.197 344.5,149.5C 317.123,164.512 287.79,172.179 256.5,172.5C 256.5,135.167 256.5,97.8333 256.5,60.5 Z"/></g>
<g><path style="opacity:0.845" fill="#000000" d="M 46.5,122.5 C 55.2069,122.037 58.7069,126.037 57,134.5C 52.6204,139.343 47.9538,139.677 43,135.5C 40.6346,130.11 41.8013,125.776 46.5,122.5 Z"/></g>
<g><path style="opacity:0.968" fill="#000000" d="M 107.5,122.5 C 120.424,133.599 133.758,144.099 147.5,154C 137.98,174.227 131.48,195.394 128,217.5C 112.241,218.325 96.4075,218.825 80.5,219C 73.5885,222.372 66.7551,225.872 60,229.5C 64.979,188.887 80.8124,153.22 107.5,122.5 Z"/></g>
<g><path style="opacity:0.967" fill="#000000" d="M 394.5,122.5 C 398.768,124.933 402.268,128.266 405,132.5C 424.465,157.936 437.298,186.436 443.5,218C 421.169,218.5 398.836,218.667 376.5,218.5C 373.156,195.968 366.489,174.468 356.5,154C 365.739,147.029 375.073,140.029 384.5,133C 388.037,129.631 391.371,126.131 394.5,122.5 Z"/></g>
<g><path style="opacity:0.844" fill="#000000" d="M 461.5,127.5 C 470.207,127.037 473.707,131.037 472,139.5C 467.62,144.343 462.954,144.677 458,140.5C 455.635,135.11 456.801,130.776 461.5,127.5 Z"/></g>
<g><path style="opacity:0.968" fill="#000000" d="M 155.5,157.5 C 184.176,172.971 214.842,180.971 247.5,181.5C 247.5,193.833 247.5,206.167 247.5,218.5C 210.498,218.667 173.498,218.5 136.5,218C 140.32,197.041 146.653,176.875 155.5,157.5 Z"/></g>
<g><path style="opacity:0.965" fill="#000000" d="M 347.5,157.5 C 357.729,176.522 364.396,196.856 367.5,218.5C 330.5,218.5 293.5,218.5 256.5,218.5C 256.5,206.167 256.5,193.833 256.5,181.5C 288.961,181.136 319.294,173.136 347.5,157.5 Z"/></g>
<g><path style="opacity:0.921" fill="#000000" d="M 82.5,227.5 C 83.3764,227.369 84.0431,227.702 84.5,228.5C 81.0128,237.47 82.3461,245.637 88.5,253C 81.8369,260.627 80.8369,268.96 85.5,278C 67.762,270.8 50.4287,262.467 33.5,253C 49.8946,244.471 66.2279,235.971 82.5,227.5 Z"/></g>
<g><path style="opacity:0.951" fill="#000000" d="M 97.5,227.5 C 205.833,227.5 314.167,227.5 422.5,227.5C 422.5,234.5 422.5,241.5 422.5,248.5C 314.166,248.667 205.833,248.5 97.5,248C 91.3984,243.895 89.8984,238.395 93,231.5C 94.3968,229.93 95.8968,228.596 97.5,227.5 Z"/></g>
<g><path style="opacity:0.95" fill="#000000" d="M 431.5,227.5 C 440.173,227.334 448.84,227.5 457.5,228C 472.962,232.821 479.462,243.321 477,259.5C 474.067,269.434 467.567,275.6 457.5,278C 448.84,278.5 440.173,278.666 431.5,278.5C 431.5,261.5 431.5,244.5 431.5,227.5 Z"/></g>
<g><path style="opacity:0.949" fill="#000000" d="M 98.5,257.5 C 206.5,257.5 314.5,257.5 422.5,257.5C 422.5,264.5 422.5,271.5 422.5,278.5C 314.499,278.667 206.499,278.5 98.5,278C 91.4473,274.423 89.6139,268.923 93,261.5C 94.8121,260.023 96.6455,258.69 98.5,257.5 Z"/></g>
<g><path style="opacity:0.967" fill="#000000" d="M 59.5,276.5 C 66.4734,279.987 73.4734,283.487 80.5,287C 96.4075,287.175 112.241,287.675 128,288.5C 131.48,310.606 137.98,331.773 147.5,352C 139.594,357.971 131.594,363.971 123.5,370C 118.351,374.315 113.351,378.815 108.5,383.5C 81.1481,353.114 64.8147,317.447 59.5,276.5 Z"/></g>
<g><path style="opacity:0.967" fill="#000000" d="M 137.5,287.5 C 174.167,287.5 210.833,287.5 247.5,287.5C 247.5,299.833 247.5,312.167 247.5,324.5C 214.988,324.919 184.488,332.919 156,348.5C 146.297,329.226 140.13,308.892 137.5,287.5 Z"/></g>
<g><path style="opacity:0.963" fill="#000000" d="M 256.5,287.5 C 293.5,287.5 330.5,287.5 367.5,287.5C 364.303,308.924 357.803,329.257 348,348.5C 319.511,332.919 289.011,324.919 256.5,324.5C 256.5,312.167 256.5,299.833 256.5,287.5 Z"/></g>
<g><path style="opacity:0.966" fill="#000000" d="M 376.5,287.5 C 398.836,287.333 421.169,287.5 443.5,288C 436.348,324.472 420.348,356.305 395.5,383.5C 383.163,371.978 370.163,361.478 356.5,352C 366.489,331.532 373.156,310.032 376.5,287.5 Z"/></g>
<g><path style="opacity:0.973" fill="#000000" d="M 233.5,333.5 C 238.167,333.5 242.833,333.5 247.5,333.5C 247.667,370.835 247.5,408.168 247,445.5C 210.054,423.888 181.221,394.388 160.5,357C 171.705,350.068 183.705,344.735 196.5,341C 208.831,337.768 221.164,335.268 233.5,333.5 Z"/></g>
<g><path style="opacity:0.965" fill="#000000" d="M 256.5,333.5 C 287.831,333.666 317.164,341.332 344.5,356.5C 323.91,394.59 294.743,424.257 257,445.5C 256.5,408.168 256.333,370.835 256.5,333.5 Z"/></g>
<g><path style="opacity:0.845" fill="#000000" d="M 46.5,357.5 C 55.2069,357.037 58.7069,361.037 57,369.5C 52.6204,374.343 47.9538,374.677 43,370.5C 40.6346,365.11 41.8013,360.776 46.5,357.5 Z"/></g>
<g><path style="opacity:0.844" fill="#000000" d="M 461.5,357.5 C 470.207,357.037 473.707,361.037 472,369.5C 467.62,374.343 462.954,374.677 458,370.5C 455.635,365.11 456.801,360.776 461.5,357.5 Z"/></g>
<g><path style="opacity:0.943" fill="#000000" d="M 149.5,361.5 C 150.978,361.238 152.311,361.571 153.5,362.5C 172.206,397.209 198.206,425.209 231.5,446.5C 185.556,442.125 146.556,423.292 114.5,390C 125.485,379.5 137.152,370 149.5,361.5 Z"/></g>
<g><path style="opacity:0.944" fill="#000000" d="M 351.5,361.5 C 365.487,368.628 377.987,377.961 389,389.5C 389.667,390.167 389.667,390.833 389,391.5C 356.693,423.738 317.86,442.071 272.5,446.5C 306.148,424.856 332.481,396.523 351.5,361.5 Z"/></g>
<g><path style="opacity:0.951" fill="#000000" d="M 71.5,422.5 C 93.4769,421.976 103.644,432.643 102,454.5C 96.9157,468.898 86.749,475.065 71.5,473C 57.1456,468.478 50.6456,458.645 52,443.5C 54.2647,432.407 60.7647,425.407 71.5,422.5 Z"/></g>
<g><path style="opacity:0.844" fill="#000000" d="M 386.5,447.5 C 395.207,447.037 398.707,451.037 397,459.5C 392.62,464.343 387.954,464.677 383,460.5C 380.635,455.11 381.801,450.776 386.5,447.5 Z"/></g>
</svg>
