<?xml version="1.0" encoding="UTF-8"?>
<!DOCTYPE svg PUBLIC "-//W3C//DTD SVG 1.1//EN" "http://www.w3.org/Graphics/SVG/1.1/DTD/svg11.dtd">
<svg xmlns="http://www.w3.org/2000/svg" version="1.1" width="512px" height="512px" style="shape-rendering:geometricPrecision; text-rendering:geometricPrecision; image-rendering:optimizeQuality; fill-rule:evenodd; clip-rule:evenodd" xmlns:xlink="http://www.w3.org/1999/xlink">
<g><path style="opacity:0.984" fill="#000000" d="M 150.5,15.5 C 217.501,15.3333 284.501,15.5 351.5,16C 385.599,23.4317 407.432,43.9317 417,77.5C 417.958,82.1232 418.625,86.7899 419,91.5C 419.667,197.5 419.667,303.5 419,409.5C 415.403,435.436 400.57,447.936 374.5,447C 373.333,445.833 372.167,444.667 371,443.5C 370.5,402.168 370.333,360.835 370.5,319.5C 290.833,319.5 211.167,319.5 131.5,319.5C 131.667,359.835 131.5,400.168 131,440.5C 130.594,443.494 129.094,445.661 126.5,447C 103.445,447.714 88.9448,436.88 83,414.5C 82.3333,304.5 82.3333,194.5 83,84.5C 90.5658,46.7686 113.066,23.7686 150.5,15.5 Z M 170.5,47.5 C 223.834,47.3333 277.168,47.5 330.5,48C 359.277,50.4427 377.444,65.6094 385,93.5C 386.12,112.468 386.62,131.468 386.5,150.5C 386.647,168.23 386.147,185.897 385,203.5C 383.2,205.317 381.034,206.484 378.5,207C 293.167,207.667 207.833,207.667 122.5,207C 119.545,206.608 117.378,205.108 116,202.5C 115.333,166.5 115.333,130.5 116,94.5C 122.701,65.4166 140.868,49.7499 170.5,47.5 Z M 164.5,240.5 C 181.642,239.053 191.642,246.719 194.5,263.5C 191.659,280.43 181.659,287.93 164.5,286C 148.863,279.556 144.03,268.389 150,252.5C 153.541,246.78 158.374,242.78 164.5,240.5 Z M 324.5,240.5 C 341.642,239.053 351.642,246.719 354.5,263.5C 351.659,280.43 341.659,287.93 324.5,286C 308.863,279.556 304.03,268.389 310,252.5C 313.541,246.78 318.374,242.78 324.5,240.5 Z"/></g>
<g><path style="opacity:0.994" fill="#000000" d="M 150.5,335.5 C 217.167,335.333 283.834,335.5 350.5,336C 353.094,337.339 354.594,339.506 355,342.5C 355.951,357.568 355.617,372.568 354,387.5C 353.5,389.333 352.333,390.5 350.5,391C 344.175,391.5 337.842,391.666 331.5,391.5C 331.667,423.835 331.5,456.168 331,488.5C 330.594,491.494 329.094,493.661 326.5,495C 275.833,495.667 225.167,495.667 174.5,495C 173.333,493.833 172.167,492.667 171,491.5C 170.5,458.168 170.333,424.835 170.5,391.5C 163.825,391.666 157.158,391.5 150.5,391C 149.333,389.833 148.167,388.667 147,387.5C 146.333,371.5 146.333,355.5 147,339.5C 148.376,338.295 149.542,336.962 150.5,335.5 Z"/></g>
</svg>
