<?xml version="1.0" encoding="UTF-8"?>
<!DOCTYPE svg PUBLIC "-//W3C//DTD SVG 1.1//EN" "http://www.w3.org/Graphics/SVG/1.1/DTD/svg11.dtd">
<svg xmlns="http://www.w3.org/2000/svg" version="1.1" width="512px" height="512px" style="shape-rendering:geometricPrecision; text-rendering:geometricPrecision; image-rendering:optimizeQuality; fill-rule:evenodd; clip-rule:evenodd" xmlns:xlink="http://www.w3.org/1999/xlink">
<g><path style="opacity:0.982" fill="#000000" d="M 511.5,306.5 C 511.5,315.167 511.5,323.833 511.5,332.5C 503.152,371.983 479.152,395.817 439.5,404C 394.275,407.815 362.775,388.981 345,347.5C 343.411,353.443 342.078,359.443 341,365.5C 339.73,369.77 336.896,372.27 332.5,373C 294.482,373.059 256.815,369.392 219.5,362C 214.945,359.951 212.611,356.451 212.5,351.5C 217.044,334.924 217.544,318.258 214,301.5C 206.65,304.004 199.15,306.004 191.5,307.5C 194.606,348.828 177.939,378.994 141.5,398C 101.822,412.705 67.6555,404.539 39,373.5C 19.4799,346.704 15.4799,317.704 27,286.5C 42.555,252.971 68.8883,235.305 106,233.5C 135.626,234.227 159.126,246.393 176.5,270C 179.522,270.164 182.189,269.164 184.5,267C 158.65,246.573 132.984,225.907 107.5,205C 83.7861,206.922 60.1195,209.589 36.5,213C 29.4696,220.365 22.1363,227.365 14.5,234C 7.96978,235.913 2.96978,234.08 -0.5,228.5C -0.5,225.167 -0.5,221.833 -0.5,218.5C 7.96813,209.199 16.9681,200.366 26.5,192C 42.7885,187.178 59.1218,182.511 75.5,178C 62.5476,167.385 51.3809,155.218 42,141.5C 40.8958,135.814 42.7291,131.314 47.5,128C 79.5,127.333 111.5,127.333 143.5,128C 146.135,129.961 147.969,132.461 149,135.5C 149.5,144.827 149.666,154.161 149.5,163.5C 171.355,172.297 194.021,177.964 217.5,180.5C 220.194,176.446 222.361,172.112 224,167.5C 229.719,157.552 238.219,151.385 249.5,149C 284.276,147.163 318.61,150.163 352.5,158C 358.362,159.676 364.029,161.843 369.5,164.5C 376.781,149.18 374.615,135.18 363,122.5C 360.033,114.938 362.2,109.438 369.5,106C 374.328,105.371 378.995,106.038 383.5,108C 401.402,118.221 416.902,131.388 430,147.5C 443.242,162.968 454.242,179.968 463,198.5C 467.225,207.395 469.225,216.728 469,226.5C 468.117,229.102 466.617,231.269 464.5,233C 458.58,234.261 452.58,235.261 446.5,236C 482.643,246.304 504.31,269.804 511.5,306.5 Z M 98.5,277.5 C 113.456,275.762 126.123,280.262 136.5,291C 130.992,294.255 125.325,297.255 119.5,300C 113.983,298.545 108.317,297.878 102.5,298C 85.9503,303.269 80.7836,314.102 87,330.5C 93.528,340.009 102.361,343.176 113.5,340C 120.392,337.276 125.058,332.442 127.5,325.5C 134.385,323.593 141.218,321.593 148,319.5C 146.763,342.412 134.93,356.578 112.5,362C 87.3114,363.801 71.1447,352.634 64,328.5C 61.5185,301.847 73.0185,284.847 98.5,277.5 Z M 430.5,277.5 C 460.062,284.9 471.895,303.567 466,333.5C 455.063,357.216 436.896,365.716 411.5,359C 390.649,349.465 381.816,333.298 385,310.5C 388.228,297.276 395.894,287.61 408,281.5C 409.221,287.99 410.387,294.49 411.5,301C 408.963,305.243 406.796,309.743 405,314.5C 403.823,333.323 412.657,342.157 431.5,341C 447.719,334.018 451.886,322.518 444,306.5C 441.536,303.202 438.37,300.868 434.5,299.5C 432.523,292.281 431.189,284.948 430.5,277.5 Z"/></g>
</svg>
