<?xml version="1.0" encoding="UTF-8"?>
<!DOCTYPE svg PUBLIC "-//W3C//DTD SVG 1.1//EN" "http://www.w3.org/Graphics/SVG/1.1/DTD/svg11.dtd">
<svg xmlns="http://www.w3.org/2000/svg" version="1.1" width="512px" height="512px" style="shape-rendering:geometricPrecision; text-rendering:geometricPrecision; image-rendering:optimizeQuality; fill-rule:evenodd; clip-rule:evenodd" xmlns:xlink="http://www.w3.org/1999/xlink">
<g><path style="opacity:0.97" fill="#000000" d="M 412.5,-0.5 C 415.167,-0.5 417.833,-0.5 420.5,-0.5C 441.21,1.43715 457.71,10.7705 470,27.5C 479.58,44.9539 475.414,57.6205 457.5,65.5C 456.675,69.1224 456.175,72.789 456,76.5C 452.028,82.8002 446.528,87.3002 439.5,90C 418.925,97.3446 399.592,95.0112 381.5,83C 379.383,81.2691 377.883,79.1024 377,76.5C 376.825,72.789 376.325,69.1224 375.5,65.5C 361.209,60.924 355.709,51.2573 359,36.5C 365.206,20.6286 376.372,9.79525 392.5,4C 399.163,1.8308 405.829,0.330798 412.5,-0.5 Z M 415.5,42.5 C 421.066,45.1127 423.733,49.6127 423.5,56C 423.675,59.7457 422.842,63.2457 421,66.5C 418,70.5 415,70.5 412,66.5C 409.071,60.3382 408.737,54.0048 411,47.5C 412.025,45.313 413.525,43.6464 415.5,42.5 Z"/></g>
<g><path style="opacity:0.98" fill="#000000" d="M -0.5,80.5 C 35.1682,80.3333 70.8349,80.5 106.5,81C 137.043,85.2089 156.876,102.042 166,131.5C 172.107,165.145 178.107,198.811 184,232.5C 184.667,231.833 185.333,231.167 186,230.5C 186.333,221.833 186.667,213.167 187,204.5C 188.105,201.063 190.272,198.563 193.5,197C 212.114,195.386 230.781,195.052 249.5,196C 254.783,196.615 258.283,199.449 260,204.5C 260.667,215.833 260.667,227.167 260,238.5C 258.969,241.539 257.135,244.039 254.5,246C 238.925,247.303 223.259,247.97 207.5,248C 203.5,252 199.5,256 195.5,260C 207.152,270.131 213.986,282.965 216,298.5C 216.667,337.5 216.667,376.5 216,415.5C 214.353,424.479 209.186,430.313 200.5,433C 194.175,433.5 187.842,433.666 181.5,433.5C 181.667,447.171 181.5,460.837 181,474.5C 177.195,495.806 164.695,508.139 143.5,511.5C 141.167,511.5 138.833,511.5 136.5,511.5C 114.729,507.56 102.229,494.56 99,472.5C 98.5001,459.504 98.3334,446.504 98.5,433.5C 86.8333,433.5 75.1667,433.5 63.5,433.5C 63.848,440.906 63.348,448.239 62,455.5C 60.3374,457.917 58.1707,459.75 55.5,461C 36.8363,461.5 18.1696,461.667 -0.5,461.5C -0.5,442.167 -0.5,422.833 -0.5,403.5C 13.504,403.667 27.504,403.5 41.5,403C 49.5458,400.073 52.0458,394.573 49,386.5C 47.3626,384.19 45.196,382.69 42.5,382C 28.1705,381.5 13.8372,381.333 -0.5,381.5C -0.5,372.167 -0.5,362.833 -0.5,353.5C 21.1692,353.667 42.8359,353.5 64.5,353C 71.9394,349.349 73.7727,343.849 70,336.5C 68.0478,334.106 65.5478,332.606 62.5,332C 41.5026,331.5 20.5026,331.333 -0.5,331.5C -0.5,284.5 -0.5,237.5 -0.5,190.5C 2.71568,189.062 6.04901,187.895 9.5,187C 43.2141,186.028 76.8808,186.361 110.5,188C 123.719,193.586 131.885,203.42 135,217.5C 135.5,226.827 135.666,236.161 135.5,245.5C 140.833,245.5 146.167,245.5 151.5,245.5C 145.669,211.846 139.835,178.18 134,144.5C 129.078,127.579 117.912,117.745 100.5,115C 94.5,114.333 88.5,114.333 82.5,115C 95.2706,130.76 95.7706,146.927 84,163.5C 65.0421,179.908 46.7088,179.241 29,161.5C 23.1456,153.337 20.8122,144.337 22,134.5C 20.2002,136.317 18.0336,137.484 15.5,138C 10.1771,138.499 4.84372,138.666 -0.5,138.5C -0.5,119.167 -0.5,99.8333 -0.5,80.5 Z M 53.5,202.5 C 80.6247,203.626 95.958,217.626 99.5,244.5C 93.1667,244.5 86.8333,244.5 80.5,244.5C 77.4313,226.939 67.098,219.772 49.5,223C 39.5433,226.778 34.5433,233.945 34.5,244.5C 28.1667,244.5 21.8333,244.5 15.5,244.5C 17.3447,220.657 30.0113,206.657 53.5,202.5 Z M 134.5,306.5 C 150.789,304.896 163.289,310.896 172,324.5C 179.97,342.994 176.137,358.494 160.5,371C 141.78,380.778 125.613,377.611 112,361.5C 102.096,343.176 104.929,327.01 120.5,313C 125.034,310.333 129.7,308.166 134.5,306.5 Z"/></g>
<g><path style="opacity:0.927" fill="#000000" d="M 454.5,93.5 C 454.285,111.599 445.285,123.432 427.5,129C 400.768,133.476 384.101,122.643 377.5,96.5C 377.833,95.8333 378.167,95.1667 378.5,94.5C 404.175,109.469 429.508,109.135 454.5,93.5 Z"/></g>
<g><path style="opacity:0.957" fill="#000000" d="M 370.5,128.5 C 374.846,128.334 379.179,128.501 383.5,129C 388.865,133.684 394.865,137.35 401.5,140C 390.531,141.305 379.531,142.305 368.5,143C 357.137,145.365 351.137,152.365 350.5,164C 350.949,169.744 351.616,175.411 352.5,181C 350.706,184.088 349.039,187.254 347.5,190.5C 349.003,191.052 350.669,191.052 352.5,190.5C 353.601,201.808 354.601,213.142 355.5,224.5C 355.387,226.641 354.72,228.475 353.5,230C 339.892,234.203 326.226,238.203 312.5,242C 298.55,243.55 290.55,237.383 288.5,223.5C 288.842,221.133 289.342,218.8 290,216.5C 301.572,193.684 313.905,171.351 327,149.5C 338.907,136.962 353.407,129.962 370.5,128.5 Z"/></g>
<g><path style="opacity:0.969" fill="#000000" d="M 511.5,164.5 C 511.5,189.5 511.5,214.5 511.5,239.5C 508.117,248.033 501.783,252.366 492.5,252.5C 473.434,249.767 454.434,246.6 435.5,243C 419.358,239.889 413.525,230.389 418,214.5C 421.677,207.411 427.511,204.078 435.5,204.5C 448.236,206.114 460.903,208.114 473.5,210.5C 473.667,197.496 473.5,184.496 473,171.5C 471.728,168.778 469.561,167.444 466.5,167.5C 466.5,177.833 466.5,188.167 466.5,198.5C 461.744,197.929 457.077,196.929 452.5,195.5C 451.166,181.16 449.666,166.826 448,152.5C 445.5,146 441,141.5 434.5,139C 440.016,136.411 445.016,133.078 449.5,129C 461.043,127.81 472.376,128.81 483.5,132C 498.08,138.406 507.413,149.24 511.5,164.5 Z"/></g>
<g><path style="opacity:0.969" fill="#000000" d="M 421.5,149.5 C 425.182,149.335 428.848,149.501 432.5,150C 434.667,150.833 436.167,152.333 437,154.5C 438.772,167.435 439.939,180.435 440.5,193.5C 419.54,192.8 407.873,202.8 405.5,223.5C 405.872,234.415 410.539,242.915 419.5,249C 404.251,251.276 388.917,252.276 373.5,252C 371.333,251.167 369.833,249.667 369,247.5C 366.307,219.689 363.807,191.856 361.5,164C 362.192,157.975 365.525,154.641 371.5,154C 388.348,152.821 405.015,151.321 421.5,149.5 Z"/></g>
<g><path style="opacity:0.974" fill="#000000" d="M 446.5,511.5 C 444.5,511.5 442.5,511.5 440.5,511.5C 428.843,508.334 422.343,500.668 421,488.5C 420.5,428.834 420.333,369.168 420.5,309.5C 417.833,309.5 415.167,309.5 412.5,309.5C 412.667,370.501 412.5,431.501 412,492.5C 409.549,503.12 403.049,509.453 392.5,511.5C 390.5,511.5 388.5,511.5 386.5,511.5C 376.405,509.578 369.905,503.578 367,493.5C 366.167,416.165 366.333,338.831 367.5,261.5C 370.736,262.809 374.069,263.809 377.5,264.5C 398.161,262.693 418.828,260.859 439.5,259C 442.196,258.235 444.696,257.068 447,255.5C 453.151,256.776 459.317,258.11 465.5,259.5C 466.667,337.831 466.833,416.165 466,494.5C 462.694,503.981 456.194,509.647 446.5,511.5 Z"/></g>
</svg>
