<?xml version="1.0" encoding="UTF-8"?>
<!DOCTYPE svg PUBLIC "-//W3C//DTD SVG 1.1//EN" "http://www.w3.org/Graphics/SVG/1.1/DTD/svg11.dtd">
<svg xmlns="http://www.w3.org/2000/svg" version="1.1" width="512px" height="512px" style="shape-rendering:geometricPrecision; text-rendering:geometricPrecision; image-rendering:optimizeQuality; fill-rule:evenodd; clip-rule:evenodd" xmlns:xlink="http://www.w3.org/1999/xlink">
<g><path style="opacity:0.978" fill="#000000" d="M 37.5,124.5 C 171.5,124.333 305.5,124.5 439.5,125C 458.148,127.98 470.314,138.48 476,156.5C 481.038,185.102 485.705,213.769 490,242.5C 491.103,261.307 491.603,280.14 491.5,299C 491.333,314.833 491.167,330.667 491,346.5C 488.928,353.573 484.428,358.406 477.5,361C 467.218,362.536 456.885,362.87 446.5,362C 450.794,337.579 442.461,318.579 421.5,305C 395.312,292.456 372.479,296.956 353,318.5C 343.53,331.714 340.03,346.381 342.5,362.5C 277.167,362.5 211.833,362.5 146.5,362.5C 150.326,335.987 140.66,316.154 117.5,303C 88.3863,292.314 65.2197,299.814 48,325.5C 42.0471,337.218 40.2137,349.551 42.5,362.5C 31.1653,362.427 23.6653,357.093 20,346.5C 19.3333,277.833 19.3333,209.167 20,140.5C 23.2589,132.297 29.0922,126.964 37.5,124.5 Z M 49.5,147.5 C 75.1667,147.5 100.833,147.5 126.5,147.5C 126.5,175.833 126.5,204.167 126.5,232.5C 98.1667,232.5 69.8333,232.5 41.5,232.5C 41.3334,206.831 41.5,181.165 42,155.5C 43.3267,151.675 45.8267,149.008 49.5,147.5 Z M 148.5,147.5 C 176.833,147.5 205.167,147.5 233.5,147.5C 233.5,175.833 233.5,204.167 233.5,232.5C 205.167,232.5 176.833,232.5 148.5,232.5C 148.5,204.167 148.5,175.833 148.5,147.5 Z M 255.5,147.5 C 283.833,147.5 312.167,147.5 340.5,147.5C 340.5,175.833 340.5,204.167 340.5,232.5C 312.167,232.5 283.833,232.5 255.5,232.5C 255.5,204.167 255.5,175.833 255.5,147.5 Z M 363.5,147.5 C 388.169,147.333 412.836,147.5 437.5,148C 447.975,150.812 453.808,157.645 455,168.5C 459.55,195.8 463.883,223.134 468,250.5C 468.499,255.155 468.666,259.821 468.5,264.5C 443.831,264.667 419.164,264.5 394.5,264C 384.333,253.833 374.167,243.667 364,233.5C 363.5,204.835 363.333,176.169 363.5,147.5 Z"/></g>
<g><path style="opacity:0.969" fill="#000000" d="M 93.5,312.5 C 121.025,315.526 133.859,330.859 132,358.5C 125.067,381.562 109.567,391.396 85.5,388C 62.8937,380.039 53.727,364.206 58,340.5C 63.7703,323.377 75.6037,314.043 93.5,312.5 Z"/></g>
<g><path style="opacity:0.971" fill="#000000" d="M 393.5,312.5 C 413.51,313.349 426.344,323.349 432,342.5C 435.029,365.623 425.529,380.789 403.5,388C 376.071,390.568 360.405,378.235 356.5,351C 358.582,328.088 370.915,315.254 393.5,312.5 Z"/></g>
</svg>
