<?xml version="1.0" encoding="UTF-8"?>
<!DOCTYPE svg PUBLIC "-//W3C//DTD SVG 1.1//EN" "http://www.w3.org/Graphics/SVG/1.1/DTD/svg11.dtd">
<svg xmlns="http://www.w3.org/2000/svg" version="1.1" width="512px" height="512px" style="shape-rendering:geometricPrecision; text-rendering:geometricPrecision; image-rendering:optimizeQuality; fill-rule:evenodd; clip-rule:evenodd" xmlns:xlink="http://www.w3.org/1999/xlink">
<g><path style="opacity:0.977" fill="#000000" d="M 323.5,24.5 C 354.408,22.6085 374.575,36.2751 384,65.5C 388.298,93.0709 378.132,113.238 353.5,126C 327.853,135.048 306.353,129.215 289,108.5C 276.747,88.3583 276.413,68.025 288,47.5C 296.869,35.1553 308.702,27.4886 323.5,24.5 Z"/></g>
<g><path style="opacity:0.982" fill="#000000" d="M 240.5,104.5 C 252.603,102.894 263.936,105.061 274.5,111C 282.023,138.42 299.69,149.586 327.5,144.5C 336.448,148.948 343.282,155.614 348,164.5C 357.833,181.5 367.667,198.5 377.5,215.5C 396.469,224.984 415.469,234.484 434.5,244C 443.642,251.427 446.809,260.927 444,272.5C 437.846,287.16 427.013,292.66 411.5,289C 389.044,278.272 366.71,267.272 344.5,256C 341.067,252.958 338.234,249.458 336,245.5C 329.333,234.167 322.667,222.833 316,211.5C 305.833,235.167 295.667,258.833 285.5,282.5C 300,304.833 314.5,327.167 329,349.5C 330.893,352.618 332.226,355.951 333,359.5C 333.667,394.167 333.667,428.833 333,463.5C 326.715,481.069 314.215,488.569 295.5,486C 283.567,482.401 276.067,474.568 273,462.5C 272.667,433.5 272.333,404.5 272,375.5C 259.939,357.769 248.273,339.769 237,321.5C 232.879,322.139 228.713,322.805 224.5,323.5C 217.333,338.5 210.167,353.5 203,368.5C 201.207,371.295 199.04,373.795 196.5,376C 168.876,397.955 141.543,420.288 114.5,443C 98.7438,450.919 84.9105,448.419 73,435.5C 64.7598,423.412 64.4264,411.079 72,398.5C 98.0842,375.745 124.751,353.745 152,332.5C 160.667,314.5 169.333,296.5 178,278.5C 178.856,268.775 180.189,259.108 182,249.5C 193.736,222.125 205.569,194.792 217.5,167.5C 217,167.167 216.5,166.833 216,166.5C 209.316,169.171 202.65,171.838 196,174.5C 184.527,200.584 172.861,226.584 161,252.5C 152.866,262.366 142.699,265.199 130.5,261C 118.671,255.177 113.838,245.677 116,232.5C 129.278,201.334 142.945,170.334 157,139.5C 159.989,135.509 163.822,132.676 168.5,131C 192.571,122.035 216.571,113.202 240.5,104.5 Z"/></g>
</svg>
