<?xml version="1.0" encoding="UTF-8"?>
<!DOCTYPE svg PUBLIC "-//W3C//DTD SVG 1.1//EN" "http://www.w3.org/Graphics/SVG/1.1/DTD/svg11.dtd">
<svg xmlns="http://www.w3.org/2000/svg" version="1.1" width="512px" height="512px" style="shape-rendering:geometricPrecision; text-rendering:geometricPrecision; image-rendering:optimizeQuality; fill-rule:evenodd; clip-rule:evenodd" xmlns:xlink="http://www.w3.org/1999/xlink">
<g><path style="opacity:0.979" fill="#000000" d="M 289.5,-0.5 C 299.833,-0.5 310.167,-0.5 320.5,-0.5C 377.427,9.58777 413.594,42.5878 429,98.5C 438.549,153.205 421.382,197.372 377.5,231C 331.983,259.382 285.65,260.716 238.5,235C 191.66,203.135 172.16,158.969 180,102.5C 191.316,52.8502 221.149,20.0169 269.5,4C 276.259,2.28494 282.925,0.784944 289.5,-0.5 Z M 302.5,33.5 C 314.12,34.4557 319.787,40.789 319.5,52.5C 333.236,55.4536 342.736,63.4536 348,76.5C 351.164,83.9024 351.164,91.2357 348,98.5C 340.662,106.055 332.996,106.389 325,99.5C 322.424,94.83 320.757,89.83 320,84.5C 318.786,82.9512 317.286,81.7845 315.5,81C 308.5,80.3333 301.5,80.3333 294.5,81C 288.334,84.6556 286.834,89.8222 290,96.5C 306.257,108.712 322.423,121.045 338.5,133.5C 353.096,150.273 354.263,167.94 342,186.5C 336.2,193.815 328.7,198.149 319.5,199.5C 320.406,210.398 315.573,216.731 305,218.5C 294.621,217.112 289.621,211.112 290,200.5C 266.637,192.873 257.304,177.206 262,153.5C 270.299,145.323 278.299,145.656 286,154.5C 287.625,158.332 288.625,162.332 289,166.5C 290.167,168.333 291.667,169.833 293.5,171C 301.167,171.667 308.833,171.667 316.5,171C 321.596,166.752 322.763,161.585 320,155.5C 304.167,143.667 288.333,131.833 272.5,120C 258.557,105.862 255.724,89.6949 264,71.5C 270.124,61.3575 278.957,55.0242 290.5,52.5C 289.739,42.998 293.739,36.6646 302.5,33.5 Z"/></g>
<g><path style="opacity:0.98" fill="#000000" d="M 226.5,270.5 C 254.386,271.066 278.052,281.233 297.5,301C 319.167,301.333 340.833,301.667 362.5,302C 375.982,308.472 379.815,318.639 374,332.5C 370.989,336.52 367.156,339.353 362.5,341C 334.5,341.333 306.5,341.667 278.5,342C 267.926,344.302 263.759,350.802 266,361.5C 267.5,365.667 270.333,368.5 274.5,370C 303.5,370.667 332.5,370.667 361.5,370C 370.268,367.949 378.268,364.282 385.5,359C 414.833,337.667 444.167,316.333 473.5,295C 484.587,288.298 494.754,289.465 504,298.5C 511.253,310.895 509.42,321.729 498.5,331C 463.323,356.088 428.323,381.422 393.5,407C 370.554,423.634 344.887,432.634 316.5,434C 276.496,434.833 236.496,434.667 196.5,433.5C 175.645,398.456 155.312,363.122 135.5,327.5C 149.4,301.115 170.733,283.615 199.5,275C 208.502,272.611 217.502,271.111 226.5,270.5 Z"/></g>
<g><path style="opacity:0.982" fill="#000000" d="M 94.5,511.5 C 90.8333,511.5 87.1667,511.5 83.5,511.5C 78.5016,507.864 74.6682,503.197 72,497.5C 50.0661,458.575 27.7328,419.908 5,381.5C 0.616288,373.039 2.11629,365.872 9.5,360C 32.6637,346.919 55.6637,333.586 78.5,320C 87.6789,315.409 95.1789,317.242 101,325.5C 124.414,366.663 148.081,407.663 172,448.5C 175.458,455.514 174.625,462.014 169.5,468C 144.437,482.527 119.437,497.027 94.5,511.5 Z"/></g>
</svg>
