<?xml version="1.0" encoding="UTF-8"?>
<!DOCTYPE svg PUBLIC "-//W3C//DTD SVG 1.1//EN" "http://www.w3.org/Graphics/SVG/1.1/DTD/svg11.dtd">
<svg xmlns="http://www.w3.org/2000/svg" version="1.1" width="512px" height="512px" style="shape-rendering:geometricPrecision; text-rendering:geometricPrecision; image-rendering:optimizeQuality; fill-rule:evenodd; clip-rule:evenodd" xmlns:xlink="http://www.w3.org/1999/xlink">
<g><path style="opacity:0.998" fill="#000000" d="M 443.5,15.5 C 459.503,15.3334 475.503,15.5001 491.5,16C 493.333,16.5 494.5,17.6667 495,19.5C 495.667,75.5 495.667,131.5 495,187.5C 494.5,189.333 493.333,190.5 491.5,191C 475.5,191.667 459.5,191.667 443.5,191C 441.667,190.5 440.5,189.333 440,187.5C 439.333,131.5 439.333,75.5 440,19.5C 440.69,17.6498 441.856,16.3164 443.5,15.5 Z"/></g>
<g><path style="opacity:0.983" fill="#000000" d="M 267.5,23.5 C 270.85,23.335 274.183,23.5017 277.5,24C 314.167,31.3333 350.833,38.6667 387.5,46C 399.597,45.4849 411.597,43.9849 423.5,41.5C 423.83,85.0722 423.497,128.572 422.5,172C 406.167,175.667 389.833,179.333 373.5,183C 369.833,183.667 366.167,183.667 362.5,183C 327.828,174.332 293.162,165.665 258.5,157C 246.321,149.119 243.488,138.619 250,125.5C 254.522,119.155 260.688,115.822 268.5,115.5C 287.835,119.167 307.169,122.834 326.5,126.5C 333.093,126.331 335.593,122.998 334,116.5C 333.5,114.667 332.333,113.5 330.5,113C 309.98,108.129 289.313,103.963 268.5,100.5C 254.913,101.207 244.413,107.207 237,118.5C 233.796,125.202 231.296,132.036 229.5,139C 197.278,147.805 164.945,156.139 132.5,164C 121.867,165.005 111.533,163.671 101.5,160C 94.8333,156.667 88.1667,153.333 81.5,150C 78.8333,145.667 78.8333,141.333 81.5,137C 143.73,99.3922 205.73,61.5589 267.5,23.5 Z"/></g>
<g><path style="opacity:0.971" fill="#000000" d="M 242.5,175.5 C 283.063,172.02 312.23,188.354 330,224.5C 343.349,265.444 332.849,298.611 298.5,324C 274.749,336.991 250.082,338.991 224.5,330C 186.353,310.878 170.52,280.045 177,237.5C 183.794,211.042 199.627,192.208 224.5,181C 230.531,178.832 236.531,176.999 242.5,175.5 Z M 252.5,208.5 C 258.858,207.509 262.525,210.176 263.5,216.5C 272.896,221.129 278.229,228.629 279.5,239C 277.334,246.498 272.834,248.332 266,244.5C 264.395,241.352 263.395,238.019 263,234.5C 262.167,233.667 261.333,232.833 260.5,232C 250.687,229.158 246.521,232.658 248,242.5C 255.354,246.848 262.854,251.015 270.5,255C 278.867,263.172 280.701,272.672 276,283.5C 272.922,288.411 268.756,292.078 263.5,294.5C 261.842,301.996 257.509,304.162 250.5,301C 249.214,298.978 248.214,296.811 247.5,294.5C 238.104,289.871 232.771,282.371 231.5,272C 233.666,264.502 238.166,262.668 245,266.5C 246.605,269.648 247.605,272.981 248,276.5C 248.833,277.333 249.667,278.167 250.5,279C 260.313,281.842 264.479,278.342 263,268.5C 255.903,263.699 248.403,259.533 240.5,256C 232.133,247.828 230.299,238.328 235,227.5C 238.078,222.589 242.244,218.922 247.5,216.5C 248.193,213.09 249.86,210.423 252.5,208.5 Z"/></g>
<g><path style="opacity:0.998" fill="#000000" d="M 19.5,319.5 C 35.5035,319.333 51.5035,319.5 67.5,320C 69.3333,320.5 70.5,321.667 71,323.5C 71.6667,379.5 71.6667,435.5 71,491.5C 70.5,493.333 69.3333,494.5 67.5,495C 51.5,495.667 35.5,495.667 19.5,495C 17.6667,494.5 16.5,493.333 16,491.5C 15.3333,435.5 15.3333,379.5 16,323.5C 16.6897,321.65 17.8564,320.316 19.5,319.5 Z"/></g>
<g><path style="opacity:0.983" fill="#000000" d="M 137.5,327.5 C 141.182,327.335 144.848,327.501 148.5,328C 183.232,336.413 217.899,345.08 252.5,354C 264.679,361.881 267.512,372.381 261,385.5C 256.478,391.845 250.312,395.178 242.5,395.5C 223.165,391.833 203.831,388.166 184.5,384.5C 177.907,384.669 175.407,388.002 177,394.5C 177.5,396.333 178.667,397.5 180.5,398C 199.737,402.429 219.07,406.429 238.5,410C 253.714,410.976 265.547,405.143 274,392.5C 277.204,385.798 279.704,378.964 281.5,372C 310.167,364.333 338.833,356.667 367.5,349C 391.155,343.374 412.322,348.207 431,363.5C 432.655,368.937 431.155,373.103 426.5,376C 365.5,413 304.5,450 243.5,487C 240.167,487.667 236.833,487.667 233.5,487C 196.833,479.667 160.167,472.333 123.5,465C 111.403,465.515 99.403,467.015 87.5,469.5C 87.3333,426.165 87.5,382.832 88,339.5C 104.608,335.549 121.108,331.549 137.5,327.5 Z"/></g>
</svg>
