<?xml version="1.0" encoding="UTF-8"?>
<!DOCTYPE svg PUBLIC "-//W3C//DTD SVG 1.1//EN" "http://www.w3.org/Graphics/SVG/1.1/DTD/svg11.dtd">
<svg xmlns="http://www.w3.org/2000/svg" version="1.1" width="512px" height="512px" style="shape-rendering:geometricPrecision; text-rendering:geometricPrecision; image-rendering:optimizeQuality; fill-rule:evenodd; clip-rule:evenodd" xmlns:xlink="http://www.w3.org/1999/xlink">
<g><path style="opacity:0.962" fill="#020104" d="M 407.5,-0.5 C 416.167,-0.5 424.833,-0.5 433.5,-0.5C 478.911,9.91442 504.911,38.2478 511.5,84.5C 511.5,95.5 511.5,106.5 511.5,117.5C 508.054,159.267 496.221,198.6 476,235.5C 469.907,242.148 462.74,243.648 454.5,240C 448.23,235.291 446.064,229.124 448,221.5C 472.917,176.512 482.917,128.512 478,77.5C 465.935,40.4339 440.768,25.6005 402.5,33C 376.087,42.803 361.754,61.803 359.5,90C 361.527,110.661 364.693,131.161 369,151.5C 370.995,166.504 364.495,173.337 349.5,172C 344,170.5 340.5,167 339,161.5C 332.573,134.846 329.239,107.846 329,80.5C 334.142,45.6941 352.642,20.8608 384.5,6C 392.096,3.07225 399.763,0.905588 407.5,-0.5 Z"/></g>
<g><path style="opacity:0.987" fill="#020104" d="M 190.5,511.5 C 184.833,511.5 179.167,511.5 173.5,511.5C 168.482,509.822 163.815,507.322 159.5,504C 108.667,453.167 57.8333,402.333 7,351.5C 3.39389,346.955 0.893892,341.955 -0.5,336.5C -0.5,331.5 -0.5,326.5 -0.5,321.5C 1.42666,316.313 3.92666,311.313 7,306.5C 81.5,232 156,157.5 230.5,83C 234.749,81.8744 239.082,81.2077 243.5,81C 267.506,80.4232 291.506,80.5899 315.5,81.5C 314.991,98.1542 316.325,114.821 319.5,131.5C 316.163,139.517 313.83,147.85 312.5,156.5C 314.763,181.93 328.596,195.93 354,198.5C 379.401,195.932 393.234,181.932 395.5,156.5C 394.405,142.977 388.572,131.977 378,123.5C 375.149,111.339 373.649,99.0053 373.5,86.5C 386.338,87.1879 399.004,89.0213 411.5,92C 416.973,94.7484 420.14,99.2484 421,105.5C 428.645,157.901 432.311,210.568 432,263.5C 431.798,268.989 430.798,274.322 429,279.5C 353.833,354.667 278.667,429.833 203.5,505C 199.353,507.74 195.02,509.907 190.5,511.5 Z M 280.5,218.5 C 287.243,223.737 293.577,229.571 299.5,236C 293.788,241.377 288.455,247.043 283.5,253C 292.095,262.94 299.095,273.94 304.5,286C 295.999,291.418 287.332,296.585 278.5,301.5C 273.094,287.6 265.094,275.434 254.5,265C 249.094,260.065 242.761,258.065 235.5,259C 226.938,262.848 224.105,269.348 227,278.5C 232.383,293.6 238.049,308.6 244,323.5C 249.47,348.395 240.97,366.895 218.5,379C 198.844,385.711 180.677,382.877 164,370.5C 157.043,376.455 150.376,382.789 144,389.5C 137.985,383.652 132.152,377.652 126.5,371.5C 132.364,365.472 138.03,359.305 143.5,353C 133.863,342.24 126.363,330.073 121,316.5C 120.219,315.056 120.386,313.723 121.5,312.5C 129.999,307.752 138.332,302.752 146.5,297.5C 152.365,316.427 163.032,331.927 178.5,344C 187.464,349.388 195.631,348.554 203,341.5C 206.106,333.917 206.106,326.25 203,318.5C 196.268,305.371 190.935,291.704 187,277.5C 183.202,249.962 194.702,232.462 221.5,225C 236.624,223.406 250.457,226.906 263,235.5C 269.325,230.342 275.158,224.675 280.5,218.5 Z"/></g>
</svg>
