<?xml version="1.0" encoding="UTF-8"?>
<!DOCTYPE svg PUBLIC "-//W3C//DTD SVG 1.1//EN" "http://www.w3.org/Graphics/SVG/1.1/DTD/svg11.dtd">
<svg xmlns="http://www.w3.org/2000/svg" version="1.1" width="512px" height="512px" style="shape-rendering:geometricPrecision; text-rendering:geometricPrecision; image-rendering:optimizeQuality; fill-rule:evenodd; clip-rule:evenodd" xmlns:xlink="http://www.w3.org/1999/xlink">
<g><path style="opacity:0.98" fill="#000000" d="M 511.5,203.5 C 511.5,212.833 511.5,222.167 511.5,231.5C 506.639,245.014 496.973,252.014 482.5,252.5C 490.806,273.727 495.973,295.727 498,318.5C 498.667,366.5 498.667,414.5 498,462.5C 495.114,473.442 488.281,480.609 477.5,484C 463.537,485.532 449.537,485.866 435.5,485C 421.204,483.699 412.037,476.199 408,462.5C 407.5,450.171 407.333,437.838 407.5,425.5C 306.167,425.5 204.833,425.5 103.5,425.5C 103.901,438.552 103.401,451.552 102,464.5C 97.8263,477.339 88.9929,484.172 75.5,485C 63.5,485.667 51.5,485.667 39.5,485C 22.5323,483.032 13.3656,473.532 12,456.5C 11.3333,413.5 11.3333,370.5 12,327.5C 13.0846,301.83 18.5846,277.164 28.5,253.5C 14.1404,252.118 4.4737,244.784 -0.5,231.5C -0.5,222.167 -0.5,212.833 -0.5,203.5C 2.98335,193.068 10.3167,187.401 21.5,186.5C 31.9322,188.929 42.2655,191.429 52.5,194C 61.053,174.345 69.2196,154.512 77,134.5C 85.428,114.406 100.261,101.906 121.5,97C 130.463,95.8354 139.463,95.3354 148.5,95.5C 148.333,76.4971 148.5,57.4971 149,38.5C 151.612,30.5582 157.112,26.3916 165.5,26C 225.5,25.3333 285.5,25.3333 345.5,26C 353.888,26.3916 359.388,30.5582 362,38.5C 362.5,57.4971 362.667,76.4971 362.5,95.5C 386.187,92.7852 406.354,99.7852 423,116.5C 426.394,120.898 429.394,125.565 432,130.5C 440.796,151.753 449.296,173.086 457.5,194.5C 468.119,191.627 478.786,188.96 489.5,186.5C 500.683,187.401 508.017,193.068 511.5,203.5 Z M 168.5,48.5 C 183.837,48.3334 199.17,48.5001 214.5,49C 215.444,51.7191 215.777,54.5525 215.5,57.5C 209.833,57.5 204.167,57.5 198.5,57.5C 198.5,70.1667 198.5,82.8333 198.5,95.5C 193.833,95.5 189.167,95.5 184.5,95.5C 184.5,82.8333 184.5,70.1667 184.5,57.5C 178.833,57.5 173.167,57.5 167.5,57.5C 167.264,54.3915 167.597,51.3915 168.5,48.5 Z M 230.5,48.5 C 235.511,48.3341 240.511,48.5007 245.5,49C 252.029,64.2526 258.362,79.5859 264.5,95C 260.167,95.6667 255.833,95.6667 251.5,95C 249.998,91.9953 248.998,88.8286 248.5,85.5C 241.468,85.1697 234.468,85.503 227.5,86.5C 226.199,89.4271 225.199,92.4271 224.5,95.5C 220.167,95.5 215.833,95.5 211.5,95.5C 217.254,79.5664 223.587,63.8997 230.5,48.5 Z M 266.5,49.5 C 270.981,48.3516 275.648,48.1849 280.5,49C 283.71,53.9203 287.043,58.7537 290.5,63.5C 293.957,58.7537 297.29,53.9203 300.5,49C 305.167,48.3333 309.833,48.3333 314.5,49C 308.779,56.9493 303.446,65.116 298.5,73.5C 303.222,81.0647 308.555,88.2314 314.5,95C 309.833,95.6667 305.167,95.6667 300.5,95C 297.719,89.7307 294.386,84.8973 290.5,80.5C 286.614,84.8973 283.281,89.7307 280.5,95C 275.833,95.6667 271.167,95.6667 266.5,95C 272.445,88.2314 277.778,81.0647 282.5,73.5C 277.653,65.1295 272.32,57.1295 266.5,49.5 Z M 324.5,48.5 C 328.767,48.203 332.934,48.5363 337,49.5C 337.5,64.8297 337.667,80.163 337.5,95.5C 332.833,95.5 328.167,95.5 323.5,95.5C 323.183,79.7556 323.516,64.089 324.5,48.5 Z M 142.5,118.5 C 217.834,118.333 293.167,118.5 368.5,119C 381.152,120.908 390.652,127.408 397,138.5C 410.943,172.053 424.61,205.72 438,239.5C 440.063,247.541 437.23,253.041 429.5,256C 312.444,256.994 195.444,256.661 78.5,255C 72.4487,250.512 70.6153,244.679 73,237.5C 87.0574,203.052 101.391,168.719 116,134.5C 122.791,125.692 131.625,120.358 142.5,118.5 Z M 75.5,314.5 C 102.551,314.035 129.551,314.535 156.5,316C 159.187,317.875 161.021,320.375 162,323.5C 162.667,337.167 162.667,350.833 162,364.5C 160.833,368.333 158.333,370.833 154.5,372C 126.438,372.975 98.4382,372.641 70.5,371C 67.4469,368.949 65.6135,366.115 65,362.5C 64.3333,349.833 64.3333,337.167 65,324.5C 66.4587,318.871 69.9587,315.538 75.5,314.5 Z M 357.5,314.5 C 383.169,314.333 408.835,314.5 434.5,315C 440.667,315.833 444.167,319.333 445,325.5C 445.926,339.223 445.593,352.889 444,366.5C 442.125,369.187 439.625,371.021 436.5,372C 409.5,372.667 382.5,372.667 355.5,372C 351.667,370.833 349.167,368.333 348,364.5C 347.333,350.5 347.333,336.5 348,322.5C 350.002,318.275 353.169,315.609 357.5,314.5 Z"/></g>
<g><path style="opacity:0.773" fill="#000000" d="M 237.5,61.5 C 240.315,65.7956 242.648,70.4623 244.5,75.5C 240.217,76.4922 235.884,76.8256 231.5,76.5C 232.715,71.1883 234.715,66.1883 237.5,61.5 Z"/></g>
</svg>
