<?xml version="1.0" encoding="UTF-8"?>
<!DOCTYPE svg PUBLIC "-//W3C//DTD SVG 1.1//EN" "http://www.w3.org/Graphics/SVG/1.1/DTD/svg11.dtd">
<svg xmlns="http://www.w3.org/2000/svg" version="1.1" width="512px" height="512px" style="shape-rendering:geometricPrecision; text-rendering:geometricPrecision; image-rendering:optimizeQuality; fill-rule:evenodd; clip-rule:evenodd" xmlns:xlink="http://www.w3.org/1999/xlink">
<g><path style="opacity:0.991" fill="#000000" d="M 233.5,31.5 C 248.17,31.3334 262.837,31.5001 277.5,32C 282,33.8333 285.167,37 287,41.5C 287.333,59.5 287.667,77.5 288,95.5C 291.187,109.344 299.354,113.51 312.5,108C 315.106,106.062 316.939,103.562 318,100.5C 319.231,87.8805 319.898,75.2138 320,62.5C 354.185,80.357 378.185,107.357 392,143.5C 393.9,148.694 395.067,154.027 395.5,159.5C 412.859,164.541 419.025,175.874 414,193.5C 411.167,199 407,203.167 401.5,206C 352.891,207.16 304.224,207.66 255.5,207.5C 206.776,207.66 158.109,207.16 109.5,206C 94.9547,197.157 91.4547,184.991 99,169.5C 103.053,163.726 108.553,160.392 115.5,159.5C 122.168,127.325 138.168,100.825 163.5,80C 172.131,73.377 181.298,67.5437 191,62.5C 191.333,73.5 191.667,84.5 192,95.5C 193.847,107.343 200.68,112.176 212.5,110C 219.053,107.399 222.553,102.566 223,95.5C 223.333,77.5 223.667,59.5 224,41.5C 226.022,36.98 229.189,33.6467 233.5,31.5 Z"/></g>
<g><path style="opacity:0.992" fill="#000000" d="M 143.5,239.5 C 218.167,239.5 292.833,239.5 367.5,239.5C 371.051,276.012 360.551,307.679 336,334.5C 335.667,342.5 335.333,350.5 335,358.5C 308.578,371.961 282.078,385.295 255.5,398.5C 229.083,387.028 202.75,375.361 176.5,363.5C 175.668,353.851 175.168,344.184 175,334.5C 150.449,307.679 139.949,276.012 143.5,239.5 Z"/></g>
<g><path style="opacity:0.985" fill="#000000" d="M 126.5,384.5 C 127.498,415.996 127.832,447.662 127.5,479.5C 98.8314,479.667 70.1647,479.5 41.5,479C 32.5178,474.527 29.3511,467.36 32,457.5C 54.9411,422.056 86.4411,397.722 126.5,384.5 Z"/></g>
<g><path style="opacity:0.989" fill="#000000" d="M 350.5,384.5 C 351.498,415.996 351.832,447.662 351.5,479.5C 287.5,479.5 223.5,479.5 159.5,479.5C 159.333,449.498 159.5,419.498 160,389.5C 188.483,402.329 216.983,415.163 245.5,428C 250.266,430.31 255.266,430.977 260.5,430C 290.717,415.059 320.717,399.892 350.5,384.5 Z"/></g>
<g><path style="opacity:0.986" fill="#000000" d="M 383.5,384.5 C 424.174,397.35 456.008,421.683 479,457.5C 481.649,467.36 478.482,474.527 469.5,479C 440.835,479.5 412.169,479.667 383.5,479.5C 383.5,447.833 383.5,416.167 383.5,384.5 Z"/></g>
</svg>
