<?xml version="1.0" encoding="UTF-8"?>
<!DOCTYPE svg PUBLIC "-//W3C//DTD SVG 1.1//EN" "http://www.w3.org/Graphics/SVG/1.1/DTD/svg11.dtd">
<svg xmlns="http://www.w3.org/2000/svg" version="1.1" width="512px" height="512px" style="shape-rendering:geometricPrecision; text-rendering:geometricPrecision; image-rendering:optimizeQuality; fill-rule:evenodd; clip-rule:evenodd" xmlns:xlink="http://www.w3.org/1999/xlink">
<g><path style="opacity:0.99" fill="#000000" d="M 162.5,31.5 C 224.501,31.3333 286.501,31.5 348.5,32C 385,39.8333 407.167,62 415,98.5C 415.168,167.07 415.668,235.57 416.5,304C 413.474,344.532 392.474,370.698 353.5,382.5C 368.865,407.368 384.032,432.368 399,457.5C 400.367,476.794 391.867,483.294 373.5,477C 366.669,467.675 360.336,458.009 354.5,448C 288.5,447.333 222.5,447.333 156.5,448C 150.664,458.009 144.331,467.675 137.5,477C 119.133,483.294 110.633,476.794 112,457.5C 126.968,432.368 142.135,407.368 157.5,382.5C 126.1,373.267 105.933,352.934 97,321.5C 95.3488,247.203 95.0155,172.869 96,98.5C 103.68,61.6536 125.847,39.3202 162.5,31.5 Z M 159.5,79.5 C 186.167,79.5 212.833,79.5 239.5,79.5C 239.5,127.5 239.5,175.5 239.5,223.5C 207.498,223.667 175.498,223.5 143.5,223C 134.333,221.833 129.167,216.667 128,207.5C 127.049,173.137 127.382,138.804 129,104.5C 133.514,89.1721 143.681,80.8388 159.5,79.5 Z M 271.5,79.5 C 298.169,79.3334 324.835,79.5 351.5,80C 367.546,80.93 377.713,89.0967 382,104.5C 383.118,122.801 383.618,141.135 383.5,159.5C 383.333,175.5 383.167,191.5 383,207.5C 381.833,216.667 376.667,221.833 367.5,223C 335.502,223.5 303.502,223.667 271.5,223.5C 271.5,175.5 271.5,127.5 271.5,79.5 Z M 160.5,288.5 C 174.981,286.318 184.814,291.985 190,305.5C 192.366,319.606 186.866,329.106 173.5,334C 159.394,336.366 149.894,330.866 145,317.5C 142.85,303.795 148.016,294.128 160.5,288.5 Z M 336.5,288.5 C 350.981,286.318 360.814,291.985 366,305.5C 368.366,319.606 362.866,329.106 349.5,334C 335.394,336.366 325.894,330.866 321,317.5C 318.85,303.795 324.016,294.128 336.5,288.5 Z M 195.5,383.5 C 235.501,383.333 275.501,383.5 315.5,384C 321.833,394.333 328.167,404.667 334.5,415C 281.833,415.667 229.167,415.667 176.5,415C 183.086,404.597 189.42,394.097 195.5,383.5 Z"/></g>
</svg>
