<?xml version="1.0" encoding="UTF-8"?>
<!DOCTYPE svg PUBLIC "-//W3C//DTD SVG 1.1//EN" "http://www.w3.org/Graphics/SVG/1.1/DTD/svg11.dtd">
<svg xmlns="http://www.w3.org/2000/svg" version="1.1" width="512px" height="512px" style="shape-rendering:geometricPrecision; text-rendering:geometricPrecision; image-rendering:optimizeQuality; fill-rule:evenodd; clip-rule:evenodd" xmlns:xlink="http://www.w3.org/1999/xlink">
<g><path style="opacity:0.985" fill="#000000" d="M -0.5,306.5 C -0.5,302.5 -0.5,298.5 -0.5,294.5C 93.2438,199.256 187.577,104.422 282.5,10C 283.833,9.33333 285.167,8.66667 286.5,8C 350.556,10.4201 414.556,14.0868 478.5,19C 485.19,21.0263 489.023,25.5263 490,32.5C 494.332,95.1472 497.999,157.814 501,220.5C 500,222.5 499,224.5 498,226.5C 404.833,319.667 311.667,412.833 218.5,506C 212.032,510.237 205.365,510.57 198.5,507C 131.577,440.577 65.2435,373.744 -0.5,306.5 Z M 422.5,55.5 C 447.414,59.3175 457.58,73.6508 453,98.5C 444.43,115.705 430.93,121.871 412.5,117C 396.65,109.47 390.15,96.9701 393,79.5C 397.824,65.1906 407.658,57.1906 422.5,55.5 Z M 341.5,107.5 C 343.5,107.5 345.5,107.5 347.5,107.5C 349.047,123.521 350.714,139.521 352.5,155.5C 368.783,157.662 385.117,159.496 401.5,161C 400.053,171.076 399.053,181.242 398.5,191.5C 384.135,190.406 369.802,189.073 355.5,187.5C 356.607,201.836 357.44,216.169 358,230.5C 349.415,231.773 340.748,232.773 332,233.5C 330.564,233.441 329.231,233.108 328,232.5C 326.589,216.481 325.089,200.481 323.5,184.5C 307.075,183.613 290.742,181.946 274.5,179.5C 275.859,169.554 276.859,159.554 277.5,149.5C 291.846,150.713 306.179,152.047 320.5,153.5C 319.673,139.238 318.34,125.071 316.5,111C 324.94,109.678 333.273,108.512 341.5,107.5 Z M 225.5,206.5 C 228.85,206.335 232.183,206.502 235.5,207C 266.167,222.333 296.833,237.667 327.5,253C 323.035,262.102 318.202,270.935 313,279.5C 306.564,276.191 300.064,273.357 293.5,271C 285.333,279.167 277.167,287.333 269,295.5C 270.942,302.402 273.775,309.069 277.5,315.5C 268.746,320.294 259.912,324.961 251,329.5C 234.806,298.445 219.139,267.112 204,235.5C 203.262,231.598 203.928,227.932 206,224.5C 212.096,217.898 218.596,211.898 225.5,206.5 Z M 173.5,256.5 C 180.965,263.464 188.298,270.631 195.5,278C 188.333,285.167 181.167,292.333 174,299.5C 173.333,300.167 173.333,300.833 174,301.5C 192.5,320 211,338.5 229.5,357C 222.319,364.348 214.986,371.515 207.5,378.5C 188.514,360.014 169.681,341.347 151,322.5C 143.652,330.015 136.152,337.348 128.5,344.5C 121.167,337.833 114.167,330.833 107.5,323.5C 129.521,301.146 151.521,278.812 173.5,256.5 Z"/></g>
<g><path style="opacity:0.783" fill="#000000" d="M 243.5,245.5 C 250.757,248.462 257.757,251.962 264.5,256C 260.985,259.682 257.318,263.182 253.5,266.5C 249.347,259.862 246.014,252.862 243.5,245.5 Z"/></g>
</svg>
