<?xml version="1.0" encoding="UTF-8"?>
<!DOCTYPE svg PUBLIC "-//W3C//DTD SVG 1.1//EN" "http://www.w3.org/Graphics/SVG/1.1/DTD/svg11.dtd">
<svg xmlns="http://www.w3.org/2000/svg" version="1.1" width="512px" height="512px" style="shape-rendering:geometricPrecision; text-rendering:geometricPrecision; image-rendering:optimizeQuality; fill-rule:evenodd; clip-rule:evenodd" xmlns:xlink="http://www.w3.org/1999/xlink">
<g><path style="opacity:0.981" fill="#000000" d="M 329.5,-0.5 C 330.5,-0.5 331.5,-0.5 332.5,-0.5C 356.798,24.2986 381.298,48.9653 406,73.5C 406.5,83.1609 406.666,92.8276 406.5,102.5C 396.5,102.5 386.5,102.5 376.5,102.5C 376.833,140.506 376.5,178.506 375.5,216.5C 349.378,194.442 319.378,180.442 285.5,174.5C 285.5,150.5 285.5,126.5 285.5,102.5C 275.5,102.5 265.5,102.5 255.5,102.5C 255.334,92.8276 255.5,83.1609 256,73.5C 280.702,48.9653 305.202,24.2986 329.5,-0.5 Z"/></g>
<g><path style="opacity:0.978" fill="#000000" d="M 178.5,47.5 C 179.552,47.3505 180.552,47.5172 181.5,48C 206,72.5 230.5,97 255,121.5C 255.5,131.161 255.666,140.828 255.5,150.5C 245.5,150.5 235.5,150.5 225.5,150.5C 225.5,158.5 225.5,166.5 225.5,174.5C 191.622,180.442 161.622,194.442 135.5,216.5C 134.5,194.51 134.167,172.51 134.5,150.5C 124.5,150.5 114.5,150.5 104.5,150.5C 104.334,140.828 104.5,131.161 105,121.5C 129.702,96.9653 154.202,72.2986 178.5,47.5 Z"/></g>
<g><path style="opacity:0.985" fill="#000000" d="M 273.5,511.5 C 261.5,511.5 249.5,511.5 237.5,511.5C 172.735,501.238 129.235,465.238 107,403.5C 90.3106,341.897 104.144,288.397 148.5,243C 195.495,202.259 248.829,191.259 308.5,210C 361.684,231.189 394.851,269.689 408,325.5C 418.755,397.477 393.589,452.977 332.5,492C 313.942,502.242 294.275,508.742 273.5,511.5 Z M 241.5,263.5 C 251.167,263.5 260.833,263.5 270.5,263.5C 270.17,270.2 270.503,276.866 271.5,283.5C 293.12,289.72 305.12,304.053 307.5,326.5C 297.833,326.5 288.167,326.5 278.5,326.5C 277.684,318.85 273.517,314.184 266,312.5C 257.013,310.852 248.18,311.352 239.5,314C 232.138,319.901 230.638,327.068 235,335.5C 236.873,337.709 239.04,339.542 241.5,341C 251.861,341.274 262.195,341.941 272.5,343C 294.465,348.964 306.132,363.297 307.5,386C 305.924,409.08 293.924,423.58 271.5,429.5C 270.503,436.134 270.17,442.8 270.5,449.5C 260.5,449.5 250.5,449.5 240.5,449.5C 240.83,442.8 240.497,436.134 239.5,429.5C 217.775,423.779 205.775,409.779 203.5,387.5C 213.167,387.5 222.833,387.5 232.5,387.5C 233.176,392.353 235.509,396.186 239.5,399C 250.167,402.333 260.833,402.333 271.5,399C 278.862,393.099 280.362,385.932 276,377.5C 274.337,375.083 272.171,373.25 269.5,372C 259.139,371.726 248.805,371.059 238.5,370C 216.299,363.966 204.632,349.466 203.5,326.5C 205.683,303.143 218.183,288.476 241,282.5C 241.5,276.175 241.666,269.842 241.5,263.5 Z"/></g>
</svg>
