<?xml version="1.0" encoding="UTF-8"?>
<!DOCTYPE svg PUBLIC "-//W3C//DTD SVG 1.1//EN" "http://www.w3.org/Graphics/SVG/1.1/DTD/svg11.dtd">
<svg xmlns="http://www.w3.org/2000/svg" version="1.1" width="512px" height="512px" style="shape-rendering:geometricPrecision; text-rendering:geometricPrecision; image-rendering:optimizeQuality; fill-rule:evenodd; clip-rule:evenodd" xmlns:xlink="http://www.w3.org/1999/xlink">
<g><path style="opacity:0.987" fill="#000000" d="M 511.5,244.5 C 511.5,272.167 511.5,299.833 511.5,327.5C 507.115,339.714 498.449,346.547 485.5,348C 478.842,348.5 472.175,348.666 465.5,348.5C 461.456,315.056 442.623,297.056 409,294.5C 382.158,295.919 364.158,309.252 355,334.5C 353.714,339.096 352.881,343.763 352.5,348.5C 286.832,348.667 221.166,348.5 155.5,348C 150.541,315.207 131.541,297.374 98.5,294.5C 65.7319,297.266 46.7319,314.932 41.5,347.5C 26.8065,350.87 14.3065,347.203 4,336.5C 2.45406,333.408 0.95406,330.408 -0.5,327.5C -0.5,260.833 -0.5,194.167 -0.5,127.5C 3.17392,115.8 11.1739,108.967 23.5,107C 124.833,106.333 226.167,106.333 327.5,107C 340.887,106.673 353.22,110.007 364.5,117C 368.036,120.201 371.203,123.701 374,127.5C 388.5,151.833 403,176.167 417.5,200.5C 443.613,209.371 469.613,218.538 495.5,228C 503.107,231.438 508.44,236.938 511.5,244.5 Z M 257.5,135.5 C 288.23,135.023 318.896,135.523 349.5,137C 353.967,143.429 357.8,150.262 361,157.5C 369,173.826 376.667,190.159 384,206.5C 341.238,207.663 298.404,207.83 255.5,207C 254.34,183.906 254.173,160.739 255,137.5C 255.995,136.934 256.828,136.267 257.5,135.5 Z M 467.5,263.5 C 478.172,263.333 488.839,263.5 499.5,264C 503.406,264.973 505.573,267.473 506,271.5C 506.667,278.833 506.667,286.167 506,293.5C 505.573,297.527 503.406,300.027 499.5,301C 488.833,301.667 478.167,301.667 467.5,301C 463.594,300.027 461.427,297.527 461,293.5C 460.333,286.167 460.333,278.833 461,271.5C 461.583,267.428 463.75,264.761 467.5,263.5 Z"/></g>
<g><path style="opacity:0.932" fill="#000000" d="M 89.5,299.5 C 116.559,297.766 135.725,309.099 147,333.5C 155.168,364.328 145.001,386.828 116.5,401C 90.1405,408.77 68.9738,401.603 53,379.5C 39.2659,351.499 44.4326,327.666 68.5,308C 75.1874,304.057 82.1874,301.224 89.5,299.5 Z M 96.5,316.5 C 118.31,318.477 130.31,330.311 132.5,352C 130.228,373.106 118.561,384.606 97.5,386.5C 76.2276,384.561 64.5609,372.894 62.5,351.5C 65.1482,331.187 76.4816,319.521 96.5,316.5 Z"/></g>
<g><path style="opacity:0.933" fill="#000000" d="M 401.5,299.5 C 432.747,298.27 452.58,312.603 461,342.5C 463.817,368.706 453.65,387.873 430.5,400C 399.602,410.128 376.435,400.961 361,372.5C 351.362,343.407 359.528,320.907 385.5,305C 390.74,302.534 396.073,300.7 401.5,299.5 Z M 408.5,316.5 C 429.917,318.75 441.917,330.583 444.5,352C 439.536,379.951 423.203,390.618 395.5,384C 374.216,371.031 369.383,353.531 381,331.5C 388.206,322.651 397.373,317.651 408.5,316.5 Z"/></g>
</svg>
