<?xml version="1.0" encoding="UTF-8"?>
<!DOCTYPE svg PUBLIC "-//W3C//DTD SVG 1.1//EN" "http://www.w3.org/Graphics/SVG/1.1/DTD/svg11.dtd">
<svg xmlns="http://www.w3.org/2000/svg" version="1.1" width="512px" height="512px" style="shape-rendering:geometricPrecision; text-rendering:geometricPrecision; image-rendering:optimizeQuality; fill-rule:evenodd; clip-rule:evenodd" xmlns:xlink="http://www.w3.org/1999/xlink">
<g><path style="opacity:0.983" fill="#000000" d="M 366.5,29.5 C 413.392,27.8518 447.892,47.5185 470,88.5C 484.099,122.627 482.432,155.961 465,188.5C 440.938,222.564 416.104,256.064 390.5,289C 376.801,296.517 364.634,294.684 354,283.5C 331.088,252.01 308.421,220.343 286,188.5C 269.756,159.051 267.089,128.384 278,96.5C 295.045,57.6113 324.545,35.278 366.5,29.5 Z M 374.5,95.5 C 402.877,99.0392 416.043,115.039 414,143.5C 406.842,166.965 391.009,177.132 366.5,174C 344.074,166.56 334.241,151.06 337,127.5C 342.347,108.312 354.847,97.6451 374.5,95.5 Z"/></g>
<g><path style="opacity:0.983" fill="#000000" d="M 165.5,271.5 C 213.171,271.167 260.838,271.5 308.5,272.5C 315.64,282.806 322.973,292.973 330.5,303C 278.833,303.333 227.167,303.667 175.5,304C 168.434,304.447 163.601,307.947 161,314.5C 159,323.167 159,331.833 161,340.5C 163.601,347.053 168.434,350.553 175.5,351C 200.167,351.333 224.833,351.667 249.5,352C 277.921,360.654 290.421,379.82 287,409.5C 282.441,427.726 271.275,439.892 253.5,446C 216.548,447.475 179.548,447.975 142.5,447.5C 142.666,441.158 142.5,434.825 142,428.5C 141.452,424.307 140.286,420.307 138.5,416.5C 172.162,415.667 205.828,415.167 239.5,415C 253.344,411.813 257.51,403.646 252,390.5C 250.062,387.894 247.562,386.061 244.5,385C 218.207,383.712 191.874,383.045 165.5,383C 145.667,377.833 133.167,365.333 128,345.5C 127.333,333.5 127.333,321.5 128,309.5C 133.349,289.652 145.849,276.985 165.5,271.5 Z"/></g>
<g><path style="opacity:0.972" fill="#000000" d="M 62.5,399.5 C 85.3294,396.547 101.163,405.547 110,426.5C 115.718,450.897 107.218,468.064 84.5,478C 60.1027,483.718 42.936,475.218 33,452.5C 27.4241,425.977 37.2574,408.31 62.5,399.5 Z"/></g>
</svg>
