<?xml version="1.0" encoding="UTF-8"?>
<!DOCTYPE svg PUBLIC "-//W3C//DTD SVG 1.1//EN" "http://www.w3.org/Graphics/SVG/1.1/DTD/svg11.dtd">
<svg xmlns="http://www.w3.org/2000/svg" version="1.1" width="512px" height="512px" style="shape-rendering:geometricPrecision; text-rendering:geometricPrecision; image-rendering:optimizeQuality; fill-rule:evenodd; clip-rule:evenodd" xmlns:xlink="http://www.w3.org/1999/xlink">
<g><path style="opacity:0.924" fill="#000000" d="M 186.5,-0.5 C 189.5,-0.5 192.5,-0.5 195.5,-0.5C 195.5,2.83333 195.5,6.16667 195.5,9.5C 235.5,9.5 275.5,9.5 315.5,9.5C 315.5,6.16667 315.5,2.83333 315.5,-0.5C 318.5,-0.5 321.5,-0.5 324.5,-0.5C 324.18,2.89838 324.513,6.23171 325.5,9.5C 332.509,10.4179 338.009,13.7512 342,19.5C 345.273,25.7122 348.273,32.0456 351,38.5C 351.749,39.635 351.583,40.635 350.5,41.5C 339.017,33.5037 326.35,28.3371 312.5,26C 293.532,24.8801 274.532,24.3801 255.5,24.5C 236.468,24.3801 217.468,24.8801 198.5,26C 184.65,28.3371 171.983,33.5037 160.5,41.5C 161.978,33.9386 164.811,26.6053 169,19.5C 172.991,13.7512 178.491,10.4179 185.5,9.5C 186.487,6.23171 186.82,2.89838 186.5,-0.5 Z"/></g>
<g><path style="opacity:0.981" fill="#000000" d="M 206.5,29.5 C 239.168,29.3334 271.835,29.5 304.5,30C 317.304,31.0457 329.304,34.7124 340.5,41C 352.5,48.3333 364.5,55.6667 376.5,63C 382.519,67.5476 386.685,73.3809 389,80.5C 399.196,133.362 402.529,186.695 399,240.5C 395.667,269.833 392.333,299.167 389,328.5C 388.667,346.833 388.333,365.167 388,383.5C 373.588,388.192 359.088,392.692 344.5,397C 333.505,397.5 322.505,397.667 311.5,397.5C 311.666,388.827 311.5,380.16 311,371.5C 309.992,369.741 308.492,368.574 306.5,368C 272.5,367.333 238.5,367.333 204.5,368C 202.508,368.574 201.008,369.741 200,371.5C 199.5,380.16 199.334,388.827 199.5,397.5C 188.495,397.667 177.495,397.5 166.5,397C 152.07,392.801 137.736,388.301 123.5,383.5C 121.586,336.024 117.753,288.691 112,241.5C 111.333,209.833 111.333,178.167 112,146.5C 114.907,125.819 117.907,105.153 121,84.5C 123.023,75.804 127.523,68.6374 134.5,63C 146.5,55.6667 158.5,48.3333 170.5,41C 181.887,34.8137 193.887,30.9804 206.5,29.5 Z M 250.5,93.5 C 251.498,120.995 251.831,148.662 251.5,176.5C 223.5,176.5 195.5,176.5 167.5,176.5C 161.961,151.471 156.294,126.471 150.5,101.5C 183.896,97.7165 217.229,95.0498 250.5,93.5 Z M 259.5,93.5 C 293.21,94.9393 326.876,97.606 360.5,101.5C 354.706,126.471 349.039,151.471 343.5,176.5C 315.5,176.5 287.5,176.5 259.5,176.5C 259.5,148.833 259.5,121.167 259.5,93.5 Z M 146.5,252.5 C 156.952,255.554 158.952,261.387 152.5,270C 141.244,273.076 136.744,268.91 139,257.5C 141.17,255.177 143.67,253.51 146.5,252.5 Z M 177.5,252.5 C 186.499,255.201 188.832,260.534 184.5,268.5C 179.419,272.658 174.586,272.325 170,267.5C 166.997,259.685 169.497,254.685 177.5,252.5 Z M 332.5,252.5 C 343.262,255.343 345.262,261.176 338.5,270C 330.773,273.128 325.773,270.628 323.5,262.5C 324.478,257.195 327.478,253.861 332.5,252.5 Z M 363.5,252.5 C 373.606,255.652 375.606,261.486 369.5,270C 361.5,273.334 356.5,270.834 354.5,262.5C 355.469,257.204 358.469,253.87 363.5,252.5 Z M 141.5,283.5 C 158.5,283.5 175.5,283.5 192.5,283.5C 192.5,284.833 192.5,286.167 192.5,287.5C 175.5,287.5 158.5,287.5 141.5,287.5C 141.5,286.167 141.5,284.833 141.5,283.5 Z M 318.5,283.5 C 335.5,283.5 352.5,283.5 369.5,283.5C 369.5,284.833 369.5,286.167 369.5,287.5C 352.5,287.5 335.5,287.5 318.5,287.5C 318.5,286.167 318.5,284.833 318.5,283.5 Z M 214.5,325.5 C 241.835,325.333 269.169,325.5 296.5,326C 297.126,326.75 297.626,327.584 298,328.5C 298.667,334.167 298.667,339.833 298,345.5C 297.626,346.416 297.126,347.25 296.5,348C 269.167,348.667 241.833,348.667 214.5,348C 213.874,347.25 213.374,346.416 213,345.5C 212.333,339.5 212.333,333.5 213,327.5C 213.717,326.956 214.217,326.289 214.5,325.5 Z"/></g>
<g><path style="opacity:0.976" fill="#000000" d="M 204.5,372.5 C 238.5,372.5 272.5,372.5 306.5,372.5C 306.5,382.5 306.5,392.5 306.5,402.5C 319.504,402.667 332.504,402.5 345.5,402C 355.379,398.65 365.379,395.817 375.5,393.5C 377.167,404.833 378.833,416.167 380.5,427.5C 297.167,427.5 213.833,427.5 130.5,427.5C 132.167,416.167 133.833,404.833 135.5,393.5C 145.94,395.86 156.273,398.694 166.5,402C 179.162,402.5 191.829,402.667 204.5,402.5C 204.5,392.5 204.5,382.5 204.5,372.5 Z"/></g>
<g><path style="opacity:0.906" fill="#000000" d="M 453.5,511.5 C 442.167,511.5 430.833,511.5 419.5,511.5C 405.044,493.873 390.378,476.373 375.5,459C 295.5,458.333 215.5,458.333 135.5,459C 120.622,476.373 105.956,493.873 91.5,511.5C 80.1667,511.5 68.8333,511.5 57.5,511.5C 83.2984,485.201 109.298,459.035 135.5,433C 142.524,432.169 149.524,432.336 156.5,433.5C 152.021,439.147 147.354,444.647 142.5,450C 217.833,450.667 293.167,450.667 368.5,450C 363.646,444.647 358.979,439.147 354.5,433.5C 361.476,432.336 368.476,432.169 375.5,433C 401.702,459.035 427.702,485.201 453.5,511.5 Z"/></g>
</svg>
